<svg version="1.1" id="Layer_1" xmlns="http://www.w3.org/2000/svg" xmlns:xlink="http://www.w3.org/1999/xlink" x="0px" y="0px" viewBox="0 0 1200 1200" enable-background="new 0 0 1200 1200" xml:space="preserve">
<g>
	<path fill="#C69C6D" d="M715.052,913.737c0.018-0.885-0.04-1.715-0.057-2.575l-0.136-4.314c3.812-11.862,7.628-23.647,12.06-35.09&#10;&#9;&#9;c5.301-13.687,11.421-26.933,19.304-38.747c3.911-5.92,8.3-11.434,13.092-16.501c4.825-5.037,10.069-9.62,15.724-13.659&#10;&#9;&#9;c11.301-8.1,24.134-14.096,37.626-18.582c6.732-2.244,13.684-4.195,20.641-5.759c6.93-1.59,13.968-2.788,21.072-3.598&#10;&#9;&#9;c14.204-1.712,28.655-1.873,43.123-1.002c14.473,0.889,28.959,2.949,43.361,5.852c14.403,2.932,28.731,6.652,42.895,11.424&#10;&#9;&#9;c-6.319-4.026-13.006-7.49-19.833-10.629c-6.828-3.154-13.838-5.933-20.965-8.431c-14.265-4.949-29.056-8.611-44.159-10.77&#10;&#9;&#9;c-15.095-2.196-30.521-2.769-45.909-1.558c-7.688,0.647-15.363,1.733-22.954,3.32c-7.555,1.653-14.969,3.596-22.33,6.079&#10;&#9;&#9;c-7.336,2.49-14.587,5.433-21.574,9.011c-6.971,3.595-13.739,7.743-19.973,12.631c-12.571,9.664-22.926,22.133-30.434,35.744&#10;&#9;&#9;c-7.545,13.64-12.519,28.224-16.068,42.883c-2.219,9.324-3.918,18.701-5.187,28.117l-0.157-1.775&#10;&#9;&#9;c-0.347-3.41-0.608-6.823-1.227-10.21c-0.578-3.385-0.954-6.802-1.814-10.135c-2.476-11.753-6.329-23.117-10.787-33.943&#10;&#9;&#9;c0.557-2.663,1.134-5.306,1.777-7.914c1.614-6.651,3.477-13.13,5.685-19.427c4.369-12.602,10.04-24.5,17.033-35.553&#10;&#9;&#9;c6.999-11.047,15.292-21.252,24.873-30.464c4.778-4.623,9.888-8.984,15.294-13.146c5.4-4.187,11.136-8.061,17.115-12.034&#10;&#9;&#9;c-14.285,1.512-28.11,7.211-40.255,15.425c-12.144,8.262-22.598,19.194-30.48,31.714c-7.907,12.509-13.272,26.589-15.681,41.021&#10;&#9;&#9;c-0.887,5.435-1.38,10.927-1.432,16.395c-3.991-8.942-7.987-17.717-11.42-26.73c-2.337-6.05-4.436-12.202-6.327-18.461&#10;&#9;&#9;l-1.346-4.722c-0.443-1.579-0.971-3.149-1.31-4.753c-0.802-3.19-1.541-6.405-2.407-9.626c-0.422,13.266,1.008,26.686,3.895,39.81&#10;&#9;&#9;c0.308,1.66,0.76,3.268,1.164,4.895l1.24,4.88c0.872,3.233,1.865,6.416,2.803,9.627c1.979,6.345,4.079,12.626,6.096,18.815&#10;&#9;&#9;c1.017,3.094,2.027,6.186,2.918,9.269l1.41,4.611l1.249,4.618c0.896,3.066,1.526,6.17,2.256,9.247&#10;&#9;&#9;c0.795,3.066,1.227,6.195,1.806,9.292c0.622,3.089,0.912,6.235,1.343,9.353c0.486,3.109,0.625,6.274,0.855,9.421l0.368,4.719&#10;&#9;&#9;l0.102,4.755l0.107,4.753c0.008,0.785,0.059,1.6,0.033,2.36l-0.09,2.263l-0.066,2.264c-0.02,0.755-0.026,1.513-0.129,2.253&#10;&#9;&#9;l-0.457,4.47c-0.179,1.484-0.508,2.93-0.748,4.399c-0.207,1.48-0.622,2.896-0.975,4.331c-1.413,5.737-3.576,11.232-6.425,16.367&#10;&#9;&#9;c-2.875,5.123-6.504,9.826-10.669,14.105c-4.197,4.247-8.955,8.053-14.134,11.342c-10.359,6.604-22.265,11.244-34.689,14.112&#10;&#9;&#9;c-6.219,1.439-12.59,2.4-19.041,2.857c-6.255,0.43-12.573,0.323-18.922-0.662c0.069-0.031,0.141-0.058,0.211-0.089&#10;&#9;&#9;c-0.137,0.022-0.274,0.039-0.411,0.06c-0.137-0.022-0.274-0.038-0.41-0.06c0.069,0.031,0.141,0.058,0.211,0.089&#10;&#9;&#9;c-6.349,0.985-12.667,1.092-18.922,0.662c-6.451-0.457-12.822-1.418-19.041-2.857c-12.424-2.868-24.33-7.508-34.689-14.112&#10;&#9;&#9;c-5.179-3.289-9.936-7.095-14.134-11.342c-4.165-4.279-7.794-8.983-10.67-14.105c-2.849-5.134-5.012-10.63-6.425-16.367&#10;&#9;&#9;c-0.352-1.434-0.769-2.85-0.975-4.331c-0.239-1.469-0.569-2.915-0.748-4.399l-0.457-4.47c-0.103-0.74-0.109-1.498-0.129-2.253&#10;&#9;&#9;l-0.066-2.264l-0.09-2.263c-0.026-0.76,0.024-1.575,0.033-2.36l0.106-4.753l0.103-4.755l0.368-4.719&#10;&#9;&#9;c0.23-3.147,0.369-6.311,0.855-9.421c0.221-1.594,0.405-3.195,0.615-4.792c2.081-1.1,4.162-1.994,6.238-2.71&#10;&#9;&#9;c4.433-1.517,8.821-2.311,13.21-2.344c4.39-0.039,8.786,0.644,13.366,2.076c2.294,0.707,4.618,1.608,7.04,2.626&#10;&#9;&#9;c2.424,1.03,4.848,2.257,7.601,3.426c-1.735-5.649-5.437-10.537-10.395-14.155c-4.934-3.646-11.314-5.706-17.715-5.645&#10;&#9;&#9;c-6.327,0.028-12.596,2.156-17.488,5.921c0.201-1.02,0.416-2.037,0.678-3.046c0.731-3.077,1.36-6.181,2.256-9.247l1.249-4.618&#10;&#9;&#9;l1.41-4.611c0.89-3.083,1.901-6.175,2.918-9.269c2.017-6.189,4.117-12.47,6.096-18.815c0.938-3.211,1.93-6.394,2.803-9.627&#10;&#9;&#9;l1.24-4.88c0.404-1.628,0.856-3.236,1.164-4.895c2.887-13.124,4.317-26.543,3.895-39.81c-0.866,3.221-1.605,6.436-2.407,9.626&#10;&#9;&#9;c-0.339,1.604-0.867,3.174-1.31,4.753l-1.346,4.722c-1.891,6.259-3.99,12.411-6.327,18.461c-3.433,9.013-7.429,17.788-11.42,26.73&#10;&#9;&#9;c-0.052-5.469-0.546-10.96-1.432-16.395c-2.408-14.432-7.773-28.512-15.681-41.021c-7.882-12.52-18.336-23.452-30.48-31.714&#10;&#9;&#9;c-12.145-8.214-25.971-13.913-40.255-15.425c5.98,3.973,11.716,7.848,17.115,12.034c5.406,4.162,10.515,8.522,15.294,13.146&#10;&#9;&#9;c9.581,9.213,17.874,19.417,24.873,30.464c6.993,11.053,12.663,22.951,17.033,35.553c2.208,6.298,4.071,12.777,5.685,19.427&#10;&#9;&#9;c0.643,2.608,1.22,5.251,1.777,7.914c-4.457,10.826-8.311,22.19-10.787,33.943c-0.86,3.332-1.236,6.749-1.814,10.135&#10;&#9;&#9;c-0.619,3.387-0.879,6.8-1.226,10.21l-0.158,1.775c-1.269-9.416-2.969-18.793-5.187-28.117&#10;&#9;&#9;c-3.548-14.659-8.523-29.243-16.068-42.883c-7.508-13.611-17.864-26.08-30.435-35.744c-6.234-4.888-13.001-9.036-19.972-12.631&#10;&#9;&#9;c-6.987-3.578-14.238-6.521-21.574-9.011c-7.361-2.483-14.775-4.426-22.33-6.079c-7.591-1.587-15.266-2.673-22.954-3.32&#10;&#9;&#9;c-15.388-1.211-30.814-0.638-45.909,1.558c-15.102,2.159-29.893,5.821-44.159,10.77c-7.126,2.498-14.136,5.277-20.965,8.431&#10;&#9;&#9;c-6.828,3.14-13.514,6.604-19.834,10.629c14.164-4.772,28.492-8.492,42.896-11.424c14.402-2.904,28.888-4.963,43.361-5.852&#10;&#9;&#9;c14.467-0.871,28.918-0.711,43.123,1.002c7.104,0.81,14.142,2.008,21.072,3.598c6.956,1.563,13.909,3.514,20.641,5.759&#10;&#9;&#9;c13.491,4.486,26.325,10.482,37.626,18.582c5.655,4.04,10.899,8.622,15.724,13.659c4.791,5.067,9.181,10.581,13.092,16.501&#10;&#9;&#9;c7.884,11.815,14.004,25.06,19.304,38.747c4.432,11.443,8.248,23.228,12.06,35.09l-0.136,4.314c-0.017,0.86-0.075,1.69-0.057,2.575&#10;&#9;&#9;l0.083,2.671c0.311,14.193,4.08,28.822,11.75,41.293c7.716,12.457,19.073,22.207,31.575,28.599&#10;&#9;&#9;c7.073,3.631,14.486,6.326,22.043,8.174c1.053,0.988,2.142,1.927,3.227,2.89c1.121,0.913,2.269,1.792,3.412,2.694&#10;&#9;&#9;c4.637,3.489,9.609,6.603,14.913,9.17c10.568,5.159,22.424,8.36,34.566,8.687c6.058,0.181,12.16-0.331,18.099-1.554&#10;&#9;&#9;c5.939-1.229,11.702-3.186,17.1-5.776c5.393-2.606,10.446-5.79,14.958-9.562c2.352-1.961,4.574-4.057,6.626-6.296&#10;&#9;&#9;c7.934-1.851,15.721-4.622,23.133-8.427c12.502-6.392,23.859-16.141,31.576-28.599c7.67-12.471,11.438-27.1,11.75-41.293&#10;&#9;&#9;L715.052,913.737z M622.676,998.84c-5.087,1.2-10.154,2.098-15.229,2.627c-5.076,0.519-10.153,0.694-15.24,0.536&#10;&#9;&#9;c-5.086-0.167-10.186-0.628-15.301-1.419c-4.962-0.763-9.934-1.807-14.951-3.012c3.908-0.018,7.803-0.246,11.664-0.726&#10;&#9;&#9;c6.545-0.772,13.038-2.371,18.985-4.989c5.947,2.618,12.441,4.217,18.986,4.989c5.388,0.669,10.845,0.855,16.307,0.648&#10;&#9;&#9;C626.159,997.98,624.42,998.44,622.676,998.84z" style="fill: rgb(0, 255, 0);"/>
	<path fill="#C69C6D" d="M746.966,668.216c6.16-2.821,11.952-6.585,17.004-11.185c5.052-4.594,9.354-10.026,12.546-15.982&#10;&#9;&#9;c5.612-10.429,7.789-22.232,6.447-33.295c9.107,3.558,18.012,8.117,26.592,13.61c-3.171-4.111-6.854-7.839-10.785-11.297&#10;&#9;&#9;c-3.942-3.453-8.18-6.606-12.667-9.453c-8.975-5.659-19.094-9.987-30.009-12.007c-0.845-0.159-1.696-0.296-2.55-0.424&#10;&#9;&#9;c-10.14-1.517-20.856-0.85-30.896,2.241c-5.421,1.679-10.651,4.059-15.493,6.74c-4.826,2.817-9.434,6.064-13.699,9.744&#10;&#9;&#9;c-3.041,2.656-5.848,5.579-8.442,8.671c-1.026,1.222-2.026,2.465-2.982,3.738c-3.323,4.534-6.248,9.346-8.595,14.4&#10;&#9;&#9;c-2.316,5.064-4.187,10.292-5.513,15.621c-1.372,5.316-2.24,10.716-2.695,16.108c-1.627,21.562,3.068,43.113,13.4,61.098&#10;&#9;&#9;c-2.004-10.16-3.231-20.199-3.456-30.16c-0.125-5.693,0.083-11.345,0.625-16.913c1.641,2.599,3.571,4.981,5.713,7.076&#10;&#9;&#9;c3.148,3.095,6.714,5.607,10.473,7.523c3.771,1.904,7.707,3.264,11.723,4.024c4.021,0.742,8.072,1.033,12.173,0.512&#10;&#9;&#9;c-6.161-5.44-11.954-9.831-16.708-14.75c-4.495-4.553-8.164-9.194-10.69-14.194c6.15,2.439,12.72,4.019,19.404,4.761&#10;&#9;&#9;C720.928,675.827,734.618,673.852,746.966,668.216z M690.634,662.251c-1.722-0.076-3.452-0.201-5.19-0.349&#10;&#9;&#9;c-0.96-3.388-1.539-6.97-1.691-10.832c-0.065-1.264-0.068-2.559-0.044-3.872c0.984-2.314,2.052-4.58,3.22-6.783&#10;&#9;&#9;c1.707-3.126,3.565-6.145,5.63-9c6.973,8.389,17.767,13.779,29.894,13.779c21.027,0,38.073-16.187,38.073-36.155&#10;&#9;&#9;c0-2.566-0.286-5.069-0.821-7.484c7.048,0.934,14.119,2.817,21.06,5.37c-0.061,0.18-0.125,0.361-0.187,0.541&#10;&#9;&#9;c-0.488,1.461-1.126,2.879-1.632,4.297c-0.501,1.422-1.186,2.782-1.76,4.148c-0.55,1.375-1.247,2.686-1.904,3.992&#10;&#9;&#9;c-2.641,5.214-5.691,10.001-9.233,14.251c-7.028,8.533-15.814,15.032-25.722,19.594c-9.922,4.544-20.862,7.169-32.244,8.186&#10;&#9;&#9;C702.381,662.467,696.564,662.534,690.634,662.251z" style="fill: rgb(0, 255, 0);"/>
	<path fill="#C69C6D" d="M704.188,277.039c-3.006,8.043-5.576,16.272-7.305,24.689c-0.903,4.193-1.545,8.445-2.022,12.69&#10;&#9;&#9;c-0.38,4.265-0.552,8.537-0.347,12.772c1.358-8.376,3.638-16.442,6.584-24.246c2.938-7.802,6.373-15.384,10.21-22.761&#10;&#9;&#9;c7.636-14.769,16.519-28.859,26.065-42.471c19.117-27.221,40.791-52.632,63.944-76.525c23.231-23.818,48.02-46.168,74.789-65.873&#10;&#9;&#9;c13.395-9.827,27.318-18.945,41.951-26.85c7.31-3.967,14.83-7.554,22.561-10.714c1.94-0.766,3.872-1.584,5.848-2.262l2.957-1.066&#10;&#9;&#9;l2.99-0.969c3.977-1.378,8.056-2.398,12.17-3.456c-4.235,0.14-8.488,0.503-12.713,1.11l-3.168,0.487l-3.148,0.601&#10;&#9;&#9;c-2.111,0.371-4.184,0.884-6.279,1.35c-8.351,1.955-16.518,4.676-24.508,7.819c-15.976,6.331-31.185,14.471-45.7,23.597&#10;&#9;&#9;c-28.981,18.388-55.307,40.632-79.163,65.132c-23.787,24.57-45.273,51.467-62.995,80.826&#10;&#9;&#9;C718.108,245.619,710.238,260.949,704.188,277.039z" style="fill: rgb(0, 255, 0);"/>
	<path fill="#C69C6D" d="M971.895,71.806c0.632,3.771,1.187,7.54,1.482,11.351c0.19,1.894,0.281,3.808,0.416,5.705&#10;&#9;&#9;c0.079,1.909,0.174,3.812,0.2,5.721c0.297,15.269-0.959,30.552-3.018,45.719c-4.136,30.351-11.307,60.292-20.157,89.677&#10;&#9;&#9;c-8.949,29.368-19.688,58.216-32.513,86.179c-4.568,9.96-9.401,19.811-14.545,29.516c-5.247,1.048-9.209,2.022-13.225,3.079&#10;&#9;&#9;c-4.089,1.132-8.11,2.491-12.303,4.63c-2.081,1.066-4.201,2.353-6.246,3.917c-0.509,0.359-1.018,0.806-1.514,1.249&#10;&#9;&#9;c-0.504,0.433-0.984,0.894-1.468,1.342c-0.951,0.944-1.851,2.034-2.691,3.087c-3.327,4.445-5.131,10.296-3.602,15.706&#10;&#9;&#9;c4.775-3.033,8.24-4.861,11.808-6.29c3.505-1.458,7.063-2.86,10.966-4.84c3.19-1.629,6.581-3.661,9.703-6.358&#10;&#9;&#9;c-3.117,5.42-6.351,10.782-9.675,16.111c-2.049,3.298-4.187,6.54-6.353,9.776l-3.264,4.856c-1.128,1.59-2.24,3.199-3.342,4.822&#10;&#9;&#9;c1.442-1.324,2.874-2.662,4.291-4.019l4.184-4.141c2.72-2.827,5.397-5.705,8.013-8.643c5.241-5.87,10.162-12.027,14.893-18.334&#10;&#9;&#9;c9.443-12.633,17.868-26.021,25.543-39.816c15.278-27.643,27.396-56.994,36.575-87.216c9.089-30.238,15.424-61.424,17.343-93.103&#10;&#9;&#9;c0.901-15.822,0.689-31.801-1.645-47.585c-1.199-7.875-2.92-15.717-5.616-23.24c-1.319-3.764-2.936-7.434-4.803-10.942&#10;&#9;&#9;c-1.929-3.476-4.097-6.825-6.746-9.724c1.898,3.432,3.405,7,4.548,10.671C970.311,64.324,971.262,68.031,971.895,71.806z" style="fill: rgb(0, 255, 0);"/>
	<path fill="#C69C6D" d="M591.243,305.928c1.883,7.543,4.714,14.93,9.048,21.263c-2.257-15.1-1.399-29.397,0.44-43.769&#10;&#9;&#9;c1.833-14.344,4.71-28.648,7.404-43.184c2.694-14.529,5.308-29.301,6.553-44.474c0.586-7.582,0.834-15.271,0.287-22.976&#10;&#9;&#9;c-0.171-1.929-0.286-3.842-0.576-5.766l-0.398-2.867c-0.154-0.955-0.358-1.908-0.545-2.855c-0.696-3.791-1.88-7.519-3.305-11.051&#10;&#9;&#9;c-0.469,7.645-1.558,14.877-2.987,22.084c-1.418,7.193-3.097,14.32-4.84,21.472c-3.464,14.3-7.113,28.718-9.838,43.533&#10;&#9;&#9;c-2.72,14.79-4.665,30.022-4.216,45.51C588.526,290.575,589.378,298.358,591.243,305.928z" style="fill: rgb(0, 255, 0);"/>
	<path fill="#C69C6D" d="M627.67,268.923c1.132-3.178,2.292-6.349,3.352-9.529c1.036-3.182,2.09-6.362,3.086-9.552&#10;&#9;&#9;c0.518-1.591,0.978-3.191,1.455-4.788c0.471-1.597,0.983-3.194,1.423-4.8c3.669-12.82,6.918-25.785,9.204-39.122&#10;&#9;&#9;c2.267-13.311,3.6-27.084,2.634-40.971c-0.109-1.734-0.289-3.464-0.438-5.187c-0.212-1.729-0.496-3.458-0.788-5.175l-0.434-2.571&#10;&#9;&#9;c-0.145-0.855-0.268-1.709-0.517-2.557l-1.317-5.061l-0.697-2.502c-0.269-0.826-0.576-1.646-0.886-2.46&#10;&#9;&#9;c-0.622-1.628-1.223-3.248-1.88-4.842l-0.482-1.194c-0.183-0.392-0.386-0.778-0.587-1.164l-1.204-2.301&#10;&#9;&#9;c-0.851-1.511-1.635-3.025-2.531-4.481c0.023,1.746,0.158,3.435,0.227,5.127l0.175,2.503l0.094,1.24l0.008,1.256&#10;&#9;&#9;c-0.003,1.674,0.049,3.321,0.08,4.961c0.004,0.821,0.065,1.629,0.066,2.445l-0.095,2.46l-0.113,4.863&#10;&#9;&#9;c-0.025,1.608-0.211,3.238-0.308,4.844l-0.316,4.809c-0.18,1.608-0.39,3.21-0.53,4.808c-1.353,12.782-3.624,25.513-5.846,38.458&#10;&#9;&#9;c-2.241,12.934-4.409,26.074-5.806,39.423c-1.335,13.353-2.097,26.893-0.782,40.571C625.29,275.272,626.539,272.103,627.67,268.923&#10;&#9;&#9;z" style="fill: rgb(0, 255, 0);"/>
	<path fill="#C69C6D" d="M668.559,240.834c3.889-11.166,7.017-22.581,9.317-34.233c2.266-11.652,3.784-23.55,3.78-35.661&#10;&#9;&#9;c-0.042-6.051-0.416-12.159-1.515-18.22c-0.537-3.022-1.303-6.042-2.283-8.969c-1.029-2.924-2.313-5.783-4.058-8.293&#10;&#9;&#9;c0.063,3.068-0.075,5.97-0.32,8.851c-0.317,2.892-0.639,5.721-1.122,8.557c-0.898,5.655-1.968,11.262-3.133,16.871&#10;&#9;&#9;c-2.299,11.214-4.728,22.443-6.965,33.781c-2.243,11.337-4.328,22.772-5.89,34.394c-0.754,5.818-1.438,11.669-1.876,17.592&#10;&#9;&#9;c-0.411,5.928-0.719,11.898-0.415,18.002C660.107,262.926,664.597,251.988,668.559,240.834z" style="fill: rgb(0, 255, 0);"/>
	<path fill="#C69C6D" d="M668.365,304.183c5.533-5.239,10.123-11.439,14.113-17.972c3.973-6.553,7.256-13.501,10.085-20.567&#10;&#9;&#9;c5.616-14.173,9.387-28.773,12.705-43.151c3.322-14.399,6.191-28.633,9.819-42.62c1.793-7.004,3.796-13.943,6.095-20.861&#10;&#9;&#9;c2.278-6.935,4.948-13.781,7.844-20.815c-5.714,5.034-10.566,11.014-14.828,17.377c-4.248,6.382-7.818,13.206-10.893,20.198&#10;&#9;&#9;c-6.114,14.027-10.186,28.668-13.543,43.134c-3.367,14.491-5.984,28.872-9.153,43.023&#10;&#9;&#9;C677.482,276.127,673.699,289.976,668.365,304.183z" style="fill: rgb(0, 255, 0);"/>
	<path fill="#C69C6D" d="M647.371,377.728c-0.862-2.229-1.699-4.46-2.596-6.674c-1.75-4.439-3.611-8.837-5.589-13.185&#10;&#9;&#9;c0.312,4.796,0.74,9.542,1.28,14.248c0.248,2.358,0.555,4.699,0.838,7.042l0.448,3.507l0.34,3.521&#10;&#9;&#9;c0.489,4.683,1.009,9.346,1.594,13.984l0.424,3.479l0.313,3.484c0.211,2.321,0.404,4.641,0.655,6.949&#10;&#9;&#9;c1.802,18.498,2.851,36.783,1.805,54.892c-0.134,2.267-0.194,4.534-0.384,6.804l-0.675,6.816c-0.107,1.139-0.179,2.273-0.314,3.418&#10;&#9;&#9;l-0.423,3.44l-0.825,6.899c-0.581,4.67-1.206,9.284-1.683,14.065c-0.235,2.381-0.555,4.721-0.72,7.131l-0.499,7.212&#10;&#9;&#9;c-0.222,2.389-0.187,4.828-0.237,7.245c-0.033,2.419-0.087,4.833-0.06,7.246c0.126,2.421,0.221,4.834,0.376,7.243l0.227,3.608&#10;&#9;&#9;l0.114,1.8c0.061,0.599,0.139,1.197,0.218,1.796l0.953,7.155l0.514,3.559l0.264,1.775l0.375,1.763&#10;&#9;&#9;c0.983,4.7,2.081,9.363,3.299,13.974c1.455-19.119,2.784-37.589,6.349-55.717c1.656-9.073,3.637-18.189,5.396-27.535&#10;&#9;&#9;c1.661-9.406,3.191-19.02,3.627-28.807c0.594-9.754,0.281-19.558-0.655-29.21l-0.328-3.626c-0.088-1.212-0.325-2.396-0.48-3.595&#10;&#9;&#9;c-0.336-2.392-0.726-4.776-1.106-7.159c-0.398-2.379-0.725-4.771-1.181-7.132l-1.583-7.029c-0.515-2.343-1.087-4.673-1.642-7.003&#10;&#9;&#9;l-0.836-3.492c-0.296-1.158-0.67-2.297-1.005-3.445c-1.356-4.586-2.777-9.148-4.229-13.689l-1.115-3.397&#10;&#9;&#9;C648.222,379.959,647.801,378.843,647.371,377.728z" style="fill: rgb(0, 255, 0);"/>
	<path fill="#C69C6D" d="M687.552,465.387c-3.373,14.359-6.904,28.94-9.307,43.946c-1.174,7.502-2.083,15.106-2.403,22.776&#10;&#9;&#9;c-0.29,7.662-0.106,15.405,1.292,22.971c4.01-14.776,8.596-28.682,13.242-42.836c4.591-14.127,9.166-28.399,12.667-43.202&#10;&#9;&#9;c3.485-14.77,5.944-30.151,5.63-45.802c-0.186-7.806-1.08-15.657-3.021-23.245c-1.957-7.569-4.875-14.902-9.145-21.309&#10;&#9;&#9;c2.124,15.196,1.657,29.575-0.335,43.886C694.224,436.864,690.916,451.018,687.552,465.387z" style="fill: rgb(0, 255, 0);"/>
	<path fill="#C69C6D" d="M599.912,549.898c0.233,7.59,0.746,15.231,1.85,22.828c1.131,7.584,2.744,15.159,5.516,22.337&#10;&#9;&#9;c1.21-15.263,3.145-29.776,5.094-44.545c1.9-14.732,3.758-29.604,4.462-44.799c0.694-15.16,0.268-30.73-2.935-46.054&#10;&#9;&#9;c-1.626-7.637-3.956-15.188-7.267-22.286c-3.323-7.077-7.546-13.744-12.926-19.251c4.896,14.542,7.096,28.759,7.784,43.191&#10;&#9;&#9;c0.728,14.406,0.094,28.928-0.555,43.671C600.274,519.725,599.5,534.708,599.912,549.898z" style="fill: rgb(0, 255, 0);"/>
	<path fill="#C69C6D" d="M712.125,521.712c-1.786,3.103-3.635,6.134-5.199,9.336c-1.54,3.219-2.97,6.486-4.272,9.789&#10;&#9;&#9;c2.724-2.344,5.323-4.725,7.811-7.152l7.664-7.019c5.122-4.589,10.183-9.102,15.428-13.316&#10;&#9;&#9;c10.405-8.505,21.218-16.135,32.64-22.571c11.422-6.433,23.432-11.68,36.117-15.566c3.167-0.986,6.405-1.728,9.634-2.694&#10;&#9;&#9;l9.886-2.229c3.34-0.596,6.721-1.136,10.147-1.831c3.423-0.416,6.894-0.93,10.44-1.575c-13.491-4.717-28.241-5.741-42.692-3.919&#10;&#9;&#9;c-14.465,1.862-28.626,6.737-41.347,13.95c-12.748,7.197-24.079,16.654-33.532,27.502&#10;&#9;&#9;C720.11,509.835,715.887,515.654,712.125,521.712z" style="fill: rgb(0, 255, 0);"/>
	<path fill="#C69C6D" d="M796.143,519.147c-11.12,0.307-22.206,2.163-32.729,5.688c-1.317,0.433-2.619,0.915-3.922,1.375&#10;&#9;&#9;c-1.293,0.502-2.576,1.033-3.846,1.592c-1.267,0.568-2.549,1.064-3.791,1.688l-3.693,1.915c-4.875,2.613-9.505,5.728-13.659,9.432&#10;&#9;&#9;c11.05-1.315,21.305-2.829,31.584-3.802c10.24-1.022,20.352-1.722,30.478-1.975c10.127-0.261,20.243-0.089,30.515,0.419&#10;&#9;&#9;c10.304,0.444,20.647,1.47,31.775,2.071c-8.775-6.879-19.053-11.392-29.715-14.436&#10;&#9;&#9;C818.449,520.129,807.264,518.849,796.143,519.147z" style="fill: rgb(0, 255, 0);"/>
	<path fill="#C69C6D" d="M936.884,493.958c-17.176,1.18-34.342,0.213-51.888-1.036c-17.519-1.225-35.558-2.665-53.815-1.561&#10;&#9;&#9;c-18.192,1.1-36.553,4.806-52.852,12.773c9.041-0.682,17.866-1.213,26.644-1.234c8.77-0.052,17.461,0.289,26.149,0.936&#10;&#9;&#9;c17.366,1.221,34.774,3.678,52.751,4.962c2.247,0.151,4.493,0.29,6.758,0.396c2.259,0.118,4.521,0.236,6.799,0.291l3.41,0.071&#10;&#9;&#9;l3.427,0.005c2.28,0.015,4.571,0,6.864-0.106c9.162-0.323,18.385-1.242,27.434-3.091c18.107-3.643,35.447-10.805,50.123-21.402&#10;&#9;&#9;c-8.804,2.191-17.4,4.293-26.024,5.816C954.054,492.328,945.473,493.406,936.884,493.958z" style="fill: rgb(0, 255, 0);"/>
	<path fill="#C69C6D" d="M878.03,473.456c2.036,0.51,4.067,0.825,6.105,1.076c2.031,0.217,4.049,0.288,6.081,0.35&#10;&#9;&#9;c4.038,0.023,8.048-0.293,12.007-0.861c7.911-1.175,15.589-3.44,22.913-6.527c7.317-3.102,14.299-7.051,20.642-11.977&#10;&#9;&#9;c1.579-1.241,3.136-2.506,4.613-3.896c0.738-0.693,1.487-1.361,2.207-2.07l2.097-2.217c2.74-2.994,5.24-6.301,7.149-10.034&#10;&#9;&#9;c-8.063,2.194-15.12,4.727-22.215,7.293c-7.039,2.597-13.896,5.351-20.711,8.246c-6.811,2.903-13.57,5.918-20.34,9.235&#10;&#9;&#9;C891.81,465.458,885.01,468.863,878.03,473.456z" style="fill: rgb(0, 255, 0);"/>
	<path fill="#C69C6D" d="M749.601,459.639c7.582-4.003,15.389-7.28,23.411-9.772c16.011-5.096,32.707-7.299,49.815-8.504&#10;&#9;&#9;c17.105-1.248,34.703-1.451,52.619-3.668c8.932-1.17,17.972-2.799,26.667-5.865c8.649-3.046,16.998-7.458,23.478-13.702&#10;&#9;&#9;c-16.709,6.646-33.626,7.206-50.91,7.072c-17.259-0.144-34.948-1.038-52.995,0.288c-2.251,0.168-4.505,0.357-6.767,0.612&#10;&#9;&#9;c-2.258,0.233-4.52,0.45-6.781,0.806c-2.259,0.33-4.516,0.652-6.773,1.096c-2.256,0.417-4.515,0.787-6.751,1.368&#10;&#9;&#9;c-8.968,2.043-17.833,4.938-26.207,8.902c-16.821,7.827-31.28,20.253-41.13,35.184&#10;&#9;&#9;C734.679,468.356,741.989,463.609,749.601,459.639z" style="fill: rgb(0, 255, 0);"/>
	<path fill="#C69C6D" d="M729.026,432.918c4.795-2.698,9.245-5.427,13.749-7.912c4.483-2.502,8.922-4.853,13.432-7.01&#10;&#9;&#9;c8.982-4.365,18.152-8.114,27.635-12.197c9.43-4.1,19.269-8.631,28.27-15.109c4.465-3.251,8.7-6.937,12.319-11.153&#10;&#9;&#9;c3.602-4.224,6.662-8.881,8.679-14c-4.684,2.88-9.086,5.588-13.603,7.92c-4.496,2.35-8.994,4.437-13.597,6.34&#10;&#9;&#9;c-9.159,3.85-18.711,7.189-28.408,11.4c-9.659,4.189-19.455,9.339-28.037,16.285C740.918,414.428,733.562,422.948,729.026,432.918z&#10;&#9;&#9;" style="fill: rgb(0, 255, 0);"/>
	<path fill="#C69C6D" d="M982.551,542.284c-8.897,1.282-17.675,2.262-26.51,3.113c-2.217,0.134-4.433,0.281-6.649,0.475&#10;&#9;&#9;c-1.11,0.087-2.215,0.237-3.329,0.274l-3.345,0.162c-2.232,0.094-4.47,0.347-6.718,0.444c-2.248,0.068-4.505,0.158-6.779,0.31&#10;&#9;&#9;c-1.135,0.057-2.279,0.183-3.422,0.253c-1.14,0.02-2.281,0.034-3.432,0.097c-2.297,0.082-4.617,0.233-6.961,0.416&#10;&#9;&#9;c-4.679,0.281-9.395,0.404-14.369,1.225c2.095,1.312,4.262,2.442,6.46,3.517c2.203,1.049,4.42,2.148,6.707,2.949&#10;&#9;&#9;c2.289,0.79,4.602,1.549,6.937,2.239c1.165,0.367,2.34,0.685,3.516,1.009c1.184,0.266,2.374,0.522,3.569,0.745&#10;&#9;&#9;c2.388,0.468,4.793,0.873,7.206,1.256c1.205,0.207,2.424,0.256,3.64,0.365c1.216,0.098,2.435,0.185,3.655,0.257l3.664,0.2&#10;&#9;&#9;c1.223,0.086,2.447-0.022,3.671-0.025c2.449-0.067,4.898-0.169,7.346-0.307c9.77-0.922,19.476-3.11,28.567-6.915&#10;&#9;&#9;c1.138-0.469,2.259-0.98,3.379-1.478c1.11-0.538,2.212-1.094,3.296-1.685c1.08-0.603,2.181-1.12,3.228-1.789l3.125-1.984&#10;&#9;&#9;c1.029-0.667,2.027-1.414,3.012-2.158c0.979-0.756,1.961-1.485,2.88-2.335c1.866-1.612,3.655-3.365,5.158-5.364&#10;&#9;&#9;c-4.868,0.982-9.455,1.827-14.016,2.617c-2.282,0.384-4.519,0.796-6.78,1.115c-1.131,0.153-2.232,0.378-3.345,0.554&#10;&#9;&#9;C984.785,541.98,983.659,542.111,982.551,542.284z" style="fill: rgb(0, 255, 0);"/>
	<path fill="#C69C6D" d="M1006.626,944.417c-0.195-1.35-0.46-2.685-0.688-4.032c-0.461-2.694-0.985-5.38-1.488-8.081l-1.995-7.983&#10;&#9;&#9;c-2.885-10.596-6.617-21.073-11.569-31.028c-0.615-1.246-1.17-2.526-1.836-3.746l-1.996-3.668c-1.36-2.431-2.667-4.9-4.205-7.231&#10;&#9;&#9;c-1.505-2.349-2.932-4.761-4.545-7.045l-4.921-6.807c-1.697-2.229-3.532-4.352-5.301-6.529c-0.45-0.538-0.885-1.089-1.347-1.617&#10;&#9;&#9;l-1.417-1.555l-2.839-3.11c-1.867-2.1-3.93-4.01-5.942-5.971c-1.014-0.971-2.008-1.966-3.041-2.917l-3.171-2.777&#10;&#9;&#9;c-16.976-14.741-37.016-25.908-58.329-32.51c-5.318-1.68-10.75-2.977-16.198-4.07c-5.479-0.985-10.976-1.791-16.52-2.117&#10;&#9;&#9;c-2.76-0.214-5.542-0.247-8.303-0.28c-1.383,0.001-2.773,0.079-4.152,0.116c-0.69,0.027-1.378,0.037-2.068,0.083l-2.069,0.185&#10;&#9;&#9;c-5.494,0.459-10.982,1.379-16.148,3.155c5.446-0.079,10.773,0.493,16.023,1.257c5.247,0.792,10.425,1.829,15.516,3.175&#10;&#9;&#9;c5.106,1.238,10.106,2.863,15.06,4.498l3.68,1.349c1.229,0.435,2.458,0.862,3.661,1.37c2.418,0.98,4.841,1.914,7.213,2.987&#10;&#9;&#9;c19.069,8.281,36.694,19.348,52.211,32.827l2.927,2.51c0.955,0.859,1.872,1.761,2.81,2.639c1.864,1.77,3.768,3.502,5.512,5.395&#10;&#9;&#9;l2.702,2.757l1.353,1.378c0.441,0.469,0.856,0.961,1.286,1.441l5.123,5.792c6.702,7.857,12.709,16.32,18.326,25.11&#10;&#9;&#9;c5.678,8.769,10.548,18.102,15.172,27.655l3.414,7.224c1.043,2.452,2.065,4.919,3.151,7.379l1.61,3.703l1.471,3.76&#10;&#9;&#9;c1.033,2.5,2.005,5.026,3.103,7.537c-0.194-2.712-0.513-5.409-0.77-8.133L1006.626,944.417z" style="fill: rgb(0, 255, 0);"/>
	<path fill="#C69C6D" d="M961.413,964.729c-1.039-11.526-3.364-23.044-7.092-34.202c-7.516-22.31-21.067-42.756-38.427-58.835&#10;&#9;&#9;c-17.355-16.142-38.268-28.045-60.389-35.382c-11.084-3.623-22.474-6.243-34.02-7.357c-2.894-0.236-5.764-0.532-8.666-0.577&#10;&#9;&#9;c-2.884-0.138-5.783-0.092-8.664-0.012c-5.766,0.246-11.518,0.897-17.063,2.263c5.701,0.345,11.26,1.171,16.748,2.139&#10;&#9;&#9;c2.741,0.572,5.468,1.054,8.165,1.757c2.706,0.598,5.382,1.348,8.046,2.081c10.654,2.966,20.981,6.846,30.941,11.337&#10;&#9;&#9;c19.912,8.996,38.356,20.784,54.06,35.406c15.69,14.617,28.591,32.084,37.631,51.8c4.512,9.857,8.097,20.212,11.014,30.898&#10;&#9;&#9;c2.879,10.714,4.673,21.758,6.501,33.047c0.404-2.817,0.682-5.651,1.025-8.501c0.137-1.424,0.323-2.853,0.402-4.282l0.14-4.293&#10;&#9;&#9;l0.112-4.312c0.029-1.44,0.079-2.885-0.018-4.32L961.413,964.729z" style="fill: rgb(0, 255, 0);"/>
	<path fill="#C69C6D" d="M912.289,1017.263l-0.807-8.742c-0.162-1.456-0.222-2.931-0.476-4.376l-0.695-4.351l-0.699-4.361&#10;&#9;&#9;c-0.228-1.457-0.463-2.912-0.822-4.344l-1.982-8.643c-0.297-1.453-0.779-2.856-1.196-4.278l-1.289-4.261&#10;&#9;&#9;c-0.438-1.419-0.845-2.849-1.313-4.261l-1.576-4.179c-1.095-2.771-2.028-5.61-3.332-8.305c-1.236-2.722-2.455-5.456-3.805-8.129&#10;&#9;&#9;l-4.283-7.916c-1.551-2.572-3.212-5.082-4.819-7.623c-0.778-1.288-1.701-2.482-2.58-3.704l-2.665-3.649&#10;&#9;&#9;c-14.595-19.186-34.302-34.601-56.429-43.713l-4.172-1.638c-1.382-0.561-2.8-1.032-4.22-1.49l-4.244-1.395&#10;&#9;&#9;c-1.426-0.428-2.878-0.778-4.312-1.168c-2.857-0.812-5.784-1.379-8.683-1.979c-1.45-0.3-2.931-0.474-4.39-0.715&#10;&#9;&#9;c-1.466-0.214-2.915-0.485-4.398-0.592c-5.872-0.691-11.806-0.822-17.671-0.502c-5.858,0.32-11.722,1.265-17.206,3.146&#10;&#9;&#9;c5.783-0.186,11.44,0.367,17.004,1.263c1.391,0.169,2.772,0.508,4.151,0.75c1.379,0.254,2.751,0.513,4.112,0.871l4.077,0.971&#10;&#9;&#9;l4.029,1.139c5.344,1.571,10.59,3.386,15.683,5.532l3.811,1.607l3.744,1.749c2.521,1.094,4.891,2.516,7.345,3.724&#10;&#9;&#9;c19.315,10.408,35.989,24.867,49.115,42.091l2.425,3.263c0.804,1.091,1.653,2.15,2.363,3.31c1.474,2.28,2.99,4.534,4.441,6.831&#10;&#9;&#9;l4.124,7.053c1.322,2.385,2.465,4.871,3.761,7.279c4.807,9.829,8.917,20.081,12.26,30.69c6.688,21.24,10.473,43.593,13.681,66.487&#10;&#9;&#9;c0.427-2.857,0.728-5.725,1.095-8.604c0.286-2.877,0.719-5.768,0.789-8.658c0.254-5.784,0.621-11.611,0.36-17.43&#10;&#9;&#9;C912.503,1023.104,912.456,1020.181,912.289,1017.263z" style="fill: rgb(0, 255, 0);"/>
	<path fill="#C69C6D" d="M683.665,1059.209l-5.255-26.203c-0.916-4.373-1.724-8.76-2.512-13.223&#10;&#9;&#9;c-0.81-4.477-1.488-8.996-2.201-13.857c-2.674,4.134-4.337,8.793-5.575,13.5c-1.217,4.726-1.875,9.554-2.177,14.359&#10;&#9;&#9;c-0.59,9.631,0.313,19.183,2.094,28.464c1.805,9.285,4.541,18.326,8.204,27.006c1.859,4.332,3.901,8.589,6.264,12.713&#10;&#9;&#9;c2.388,4.111,4.947,8.153,8.172,11.876c0.001-9.769-1.117-18.912-2.367-27.976C687.011,1076.833,685.375,1067.985,683.665,1059.209&#10;&#9;&#9;z" style="fill: rgb(0, 255, 0);"/>
	<path fill="#C69C6D" d="M838.047,972.121c-8.909-15.343-20.499-29.377-34.686-40.323c-7.128-5.408-14.909-10.016-23.198-13.339&#10;&#9;&#9;c-4.196-1.563-8.44-2.934-12.814-3.727c-4.361-0.806-8.791-1.143-13.124-0.838c16.404,5.6,29.433,15.832,40.917,27.288&#10;&#9;&#9;c11.387,11.61,20.961,24.83,29.136,38.921c8.205,14.094,14.882,29.138,20.626,44.722c2.9,7.792,5.409,15.768,7.908,23.838&#10;&#9;&#9;c2.509,8.079,4.622,16.31,7.141,24.643c1.876-17.254,0.62-34.796-3.017-51.941C853.184,1004.258,847.016,987.473,838.047,972.121z" style="fill: rgb(0, 255, 0);"/>
	<path fill="#C69C6D" d="M805.093,1074.157c-3.386-15.127-6.571-30.448-10.75-45.734c-1.075-3.812-2.15-7.638-3.324-11.452&#10;&#9;&#9;c-1.221-3.799-2.426-7.619-3.817-11.396c-2.748-7.559-5.895-15.075-9.855-22.303c-3.965-7.192-8.72-14.223-14.973-19.995&#10;&#9;&#9;c-3.111-2.87-6.635-5.374-10.469-7.151c-3.8-1.831-7.979-2.741-11.983-2.789c1.801,0.927,3.556,1.764,5.12,2.923&#10;&#9;&#9;c0.813,0.502,1.551,1.134,2.306,1.687c0.711,0.641,1.459,1.188,2.121,1.86c2.711,2.576,5.026,5.441,7.007,8.552&#10;&#9;&#9;c3.991,6.184,6.952,13.035,9.525,20.103c2.568,7.073,4.779,14.361,6.866,21.75c1.025,3.7,2.101,7.4,3.077,11.145&#10;&#9;&#9;c1.025,3.73,2.055,7.474,3.041,11.245c4.087,15.036,8.368,30.262,14.134,45.209c2.913,7.455,6.179,14.854,10.207,21.909&#10;&#9;&#9;c2.028,3.517,4.219,6.958,6.697,10.191c2.455,3.241,5.217,6.273,8.295,8.865c-3.377-7.294-5.734-14.617-7.775-22.079&#10;&#9;&#9;C808.511,1089.248,806.775,1081.727,805.093,1074.157z" style="fill: rgb(0, 255, 0);"/>
	<path fill="#C69C6D" d="M748.689,1110.477c-1.387-13.142-2.771-26.352-4.793-39.612c-2.037-13.253-4.584-26.589-8.737-39.75&#10;&#9;&#9;c-2.125-6.557-4.637-13.1-8.115-19.285c-0.897-1.534-1.76-3.067-2.814-4.528c-0.968-1.479-2.116-2.89-3.266-4.244&#10;&#9;&#9;c-2.389-2.666-5.188-5.06-8.372-6.445c2.121,2.752,3.44,5.75,4.602,8.739c0.5,1.558,1.065,3.028,1.44,4.621&#10;&#9;&#9;c0.192,0.79,0.457,1.526,0.626,2.325l0.534,2.365c1.393,6.296,2.339,12.733,3.201,19.22c1.72,12.977,3.154,26.149,5.164,39.362&#10;&#9;&#9;c1.991,13.216,4.485,26.515,8.249,39.657c1.921,6.559,4.152,13.085,6.989,19.406c1.425,3.153,2.985,6.262,4.772,9.246&#10;&#9;&#9;c0.829,1.51,1.88,2.94,2.829,4.373c0.48,0.715,1.056,1.388,1.585,2.071c0.531,0.683,1.081,1.349,1.642,2.001&#10;&#9;&#9;c-1.467-6.753-2.476-13.267-3.305-19.843C750.086,1123.599,749.379,1117.049,748.689,1110.477z" style="fill: rgb(0, 255, 0);"/>
	<path fill="#C69C6D" d="M943.405,629.797c-16.582,3.862-32.205,10.724-46.801,18.687c-14.633,7.977-28.269,17.165-41.709,26.163&#10;&#9;&#9;c-6.721,4.511-13.412,8.955-20.284,13.108c-6.887,4.146-13.968,7.842-21.77,10.851c4.148,0.138,8.435-0.02,12.58-0.795&#10;&#9;&#9;c2.117-0.274,4.142-0.815,6.225-1.255c2.059-0.492,4.075-1.105,6.116-1.682c8.066-2.511,15.794-5.823,23.292-9.377&#10;&#9;&#9;c14.975-7.191,29.07-15.38,43.169-23.039c14.099-7.657,28.154-14.966,42.875-20.699c7.352-2.895,14.865-5.399,22.593-7.477&#10;&#9;&#9;c7.731-2.107,15.673-3.664,23.926-5.025C977.404,625.107,959.911,625.956,943.405,629.797z" style="fill: rgb(0, 255, 0);"/>
	<path fill="#C69C6D" d="M799.055,757.428c9.766-3.736,19.277-8.049,28.618-12.598c18.668-9.138,36.594-19.343,54.507-28.963&#10;&#9;&#9;c17.925-9.564,35.839-18.793,54.655-24.82c9.399-3.017,19.047-5.022,28.919-5.575l3.72-0.2l3.721,0.085&#10;&#9;&#9;c2.516-0.063,4.977,0.302,7.504,0.497c0.628,0.065,1.269,0.091,1.892,0.189l1.868,0.324l3.782,0.63&#10;&#9;&#9;c2.526,0.462,4.982,1.214,7.569,1.748c-8.628-5.917-18.986-9.602-29.698-11.089c-10.734-1.49-21.762-0.822-32.328,1.25&#10;&#9;&#9;c-10.597,2.056-20.804,5.429-30.637,9.384c-4.921,1.981-9.722,4.182-14.487,6.416c-4.733,2.299-9.392,4.698-14.014,7.142&#10;&#9;&#9;c-18.413,9.914-35.787,21.065-53.083,32.106c-17.289,11.109-34.423,22.076-52.546,32.407&#10;&#9;&#9;C779.288,764.379,789.285,761.134,799.055,757.428z" style="fill: rgb(0, 255, 0);"/>
	<path fill="#C69C6D" d="M989.242,732.639c-9.335-7.061-20.745-11.555-32.294-13.296c-11.582-1.777-23.229-1.029-34.191,1.431&#10;&#9;&#9;c-5.489,1.257-10.838,2.885-16.018,4.928c-5.174,2.068-10.21,4.417-15.014,7.416c5.653,0.352,11.125,0.251,16.531,0.219&#10;&#9;&#9;c5.399-0.057,10.701-0.181,15.929-0.156c10.446-0.002,20.566,0.366,30.325,1.893c9.763,1.508,19.137,4.175,28.266,8.304&#10;&#9;&#9;c4.582,2.035,9.071,4.475,13.572,7.186c4.523,2.696,8.951,5.753,13.704,8.849C1005.886,748.932,998.568,739.699,989.242,732.639z" style="fill: rgb(0, 255, 0);"/>
	<path fill="#C69C6D" d="M1003.387,576.786c-6.4,1.398-12.87,2.288-19.403,3.077c-13.054,1.571-26.495,2.665-40.053,5.049&#10;&#9;&#9;c-13.538,2.336-27.18,5.955-40.015,11.591c-12.815,5.625-24.833,13.199-34.65,23.077c6.685-2.03,13.085-4.184,19.503-6.088&#10;&#9;&#9;c6.402-1.93,12.788-3.633,19.175-5.182c12.764-3.137,25.601-5.468,38.707-7.717c13.081-2.285,26.524-4.466,39.944-8.487&#10;&#9;&#9;c6.678-2.056,13.352-4.544,19.58-8.009c6.202-3.465,11.997-7.768,16.478-13.131&#10;&#9;&#9;C1016.138,573.496,1009.807,575.414,1003.387,576.786z" style="fill: rgb(0, 255, 0);"/>
	<path fill="#C69C6D" d="M546.995,240.493c0.466,1.6,1.014,3.19,1.517,4.779c0.51,1.589,1.002,3.182,1.561,4.763&#10;&#9;&#9;c1.071,3.173,2.213,6.333,3.344,9.495c0.601,1.576,1.175,3.158,1.799,4.734l1.885,4.73c1.27,3.155,2.615,6.308,4.192,9.442&#10;&#9;&#9;c1.024-6.89,1.36-13.74,1.369-20.544l-0.048-5.1c-0.038-1.695-0.134-3.38-0.199-5.072c-0.155-3.38-0.37-6.753-0.674-10.095&#10;&#9;&#9;c-1.171-13.403-3.227-26.561-5.464-39.454c-2.212-12.91-4.59-25.535-6.169-38.206c-0.165-1.584-0.414-3.174-0.627-4.77&#10;&#9;&#9;c-0.162-1.588-0.245-3.171-0.427-4.772c-0.139-1.595-0.361-3.216-0.433-4.816l-0.257-4.843l-0.175-2.456l-0.016-2.444&#10;&#9;&#9;c-0.029-1.64-0.031-3.29-0.1-4.972l-0.04-1.263l0.045-1.248l0.073-2.523c0.022-1.7,0.053-3.419-0.005-5.192&#10;&#9;&#9;c-0.977,1.429-1.866,2.914-2.763,4.416l-1.305,2.281c-0.219,0.383-0.438,0.766-0.636,1.156l-0.53,1.188&#10;&#9;&#9;c-0.722,1.585-1.378,3.202-2.06,4.83c-0.34,0.814-0.671,1.634-0.967,2.462l-0.776,2.506c-0.507,1.679-0.973,3.376-1.46,5.081&#10;&#9;&#9;c-0.273,0.852-0.416,1.71-0.581,2.57l-0.495,2.586c-0.335,1.727-0.651,3.47-0.898,5.211c-0.182,1.735-0.4,3.478-0.534,5.225&#10;&#9;&#9;c-1.194,13.997,0.033,27.876,2.311,41.223C539.74,214.78,543.101,227.726,546.995,240.493z" style="fill: rgb(0, 255, 0);"/>
	<path fill="#C69C6D" d="M515.431,241.126c2.053,5.563,4.374,11.041,6.93,16.447c1.301,2.698,2.632,5.384,4.086,8.04&#10;&#9;&#9;c1.442,2.659,2.951,5.3,4.683,7.893c0.343-3.098,0.453-6.145,0.486-9.173c0.046-3.03-0.034-6.029-0.142-9.018&#10;&#9;&#9;c-0.26-5.966-0.741-11.865-1.416-17.696c-1.329-11.668-3.311-23.105-5.547-34.41c-2.235-11.306-4.755-22.469-7.285-33.593&#10;&#9;&#9;c-1.24-5.567-2.515-11.119-3.597-16.736c-0.585-2.818-1.016-5.628-1.463-8.516c-0.372-2.877-0.652-5.783-0.758-8.907&#10;&#9;&#9;c-1.913,2.454-3.34,5.31-4.496,8.238c-1.11,2.931-1.984,5.969-2.623,9.01c-1.284,6.1-1.862,12.263-1.98,18.355&#10;&#9;&#9;c-0.235,12.201,1.192,24.166,3.461,35.849C508.077,218.592,511.309,230.006,515.431,241.126z" style="fill: rgb(0, 255, 0);"/>
	<path fill="#C69C6D" d="M459.961,148.864l1.738,5.256l1.629,5.236c2.104,6.972,3.95,13.922,5.615,20.927&#10;&#9;&#9;c3.384,13.982,6.121,28.179,9.445,42.569c3.313,14.367,7.203,28.988,13.062,43.164c2.954,7.064,6.394,14.004,10.564,20.511&#10;&#9;&#9;c1.056,1.619,2.16,3.212,3.262,4.786c1.153,1.553,2.335,3.082,3.543,4.576c1.235,1.483,2.548,2.906,3.834,4.32&#10;&#9;&#9;c1.371,1.365,2.749,2.705,4.189,3.974c-0.522-1.873-1.129-3.663-1.702-5.452c-0.532-1.814-1.082-3.595-1.628-5.361&#10;&#9;&#9;c-0.471-1.808-1.033-3.55-1.506-5.326c-0.447-1.791-0.973-3.527-1.4-5.304c-1.801-7.06-3.369-14.095-4.81-21.183&#10;&#9;&#9;c-2.927-14.148-5.424-28.509-8.797-43.01c-3.355-14.475-7.56-29.154-13.917-43.186c-3.204-6.991-6.931-13.804-11.374-20.132&#10;&#9;&#9;c-1.161-1.557-2.267-3.13-3.462-4.644c-1.244-1.489-2.443-2.989-3.73-4.421c-1.313-1.418-2.65-2.804-4.002-4.157&#10;&#9;&#9;c-1.429-1.304-2.846-2.596-4.333-3.811c0.599,1.848,1.267,3.62,1.923,5.378C458.725,145.358,459.32,147.134,459.961,148.864z" style="fill: rgb(0, 255, 0);"/>
	<path fill="#C69C6D" d="M228.72,868.464c0.429-0.479,0.845-0.972,1.285-1.441l1.353-1.378l2.702-2.757&#10;&#9;&#9;c1.744-1.893,3.648-3.624,5.513-5.395c0.939-0.878,1.855-1.78,2.81-2.639l2.927-2.51c15.517-13.48,33.142-24.547,52.211-32.827&#10;&#9;&#9;c2.371-1.073,4.794-2.007,7.212-2.987c1.203-0.508,2.432-0.935,3.661-1.37l3.68-1.349c4.953-1.634,9.954-3.26,15.06-4.498&#10;&#9;&#9;c5.091-1.346,10.269-2.383,15.516-3.175c5.25-0.764,10.578-1.336,16.023-1.257c-5.166-1.775-10.654-2.696-16.148-3.155&#10;&#9;&#9;l-2.069-0.185c-0.69-0.047-1.378-0.056-2.068-0.083c-1.379-0.037-2.769-0.115-4.152-0.116c-2.761,0.033-5.543,0.066-8.303,0.28&#10;&#9;&#9;c-5.545,0.326-11.041,1.131-16.52,2.117c-5.448,1.093-10.881,2.39-16.198,4.07c-21.313,6.602-41.353,17.769-58.329,32.51&#10;&#9;&#9;l-3.171,2.777c-1.033,0.951-2.026,1.946-3.041,2.917c-2.012,1.961-4.074,3.871-5.942,5.971l-2.84,3.11l-1.417,1.555&#10;&#9;&#9;c-0.462,0.528-0.897,1.079-1.347,1.617c-1.769,2.177-3.604,4.3-5.301,6.529l-4.921,6.807c-1.613,2.284-3.04,4.696-4.545,7.045&#10;&#9;&#9;c-1.538,2.331-2.845,4.8-4.205,7.231l-1.996,3.668c-0.666,1.22-1.222,2.5-1.837,3.746c-4.952,9.955-8.683,20.432-11.568,31.028&#10;&#9;&#9;l-1.995,7.983c-0.503,2.702-1.027,5.388-1.488,8.081c-0.228,1.347-0.493,2.682-0.688,4.032l-0.465,4.074&#10;&#9;&#9;c-0.257,2.723-0.576,5.42-0.77,8.133c1.097-2.511,2.069-5.037,3.103-7.537l1.471-3.76l1.61-3.703&#10;&#9;&#9;c1.086-2.46,2.108-4.927,3.151-7.379l3.414-7.224c4.624-9.553,9.493-18.886,15.171-27.655c5.618-8.79,11.625-17.253,18.327-25.11&#10;&#9;&#9;L228.72,868.464z" style="fill: rgb(0, 255, 0);"/>
	<path fill="#C69C6D" d="M280.153,883.346c15.705-14.621,34.149-26.409,54.061-35.406c9.96-4.491,20.287-8.37,30.941-11.337&#10;&#9;&#9;c2.664-0.733,5.34-1.483,8.046-2.081c2.698-0.702,5.425-1.185,8.165-1.757c5.488-0.968,11.048-1.794,16.748-2.139&#10;&#9;&#9;c-5.545-1.366-11.297-2.017-17.063-2.263c-2.879-0.081-5.779-0.126-8.663,0.012c-2.902,0.045-5.772,0.341-8.666,0.577&#10;&#9;&#9;c-11.546,1.114-22.936,3.734-34.02,7.357c-22.121,7.337-43.034,19.24-60.389,35.382c-17.36,16.079-30.911,36.525-38.427,58.835&#10;&#9;&#9;c-3.728,11.158-6.053,22.676-7.092,34.202l-0.449,8.656c-0.097,1.435-0.047,2.88-0.018,4.32l0.112,4.312l0.14,4.293&#10;&#9;&#9;c0.078,1.429,0.265,2.858,0.402,4.282c0.344,2.849,0.621,5.684,1.025,8.501c1.828-11.289,3.622-22.332,6.501-33.047&#10;&#9;&#9;c2.917-10.687,6.501-21.041,11.014-30.898C251.563,915.43,264.464,897.963,280.153,883.346z" style="fill: rgb(0, 255, 0);"/>
	<path fill="#C69C6D" d="M367.029,893.702c2.453-1.208,4.824-2.63,7.345-3.724l3.744-1.749l3.811-1.607&#10;&#9;&#9;c5.093-2.146,10.34-3.961,15.684-5.532l4.029-1.139l4.077-0.971c1.361-0.357,2.733-0.617,4.112-0.871&#10;&#9;&#9;c1.379-0.242,2.76-0.58,4.151-0.75c5.564-0.896,11.221-1.449,17.004-1.263c-5.485-1.88-11.349-2.826-17.206-3.146&#10;&#9;&#9;c-5.865-0.32-11.799-0.189-17.671,0.502c-1.483,0.107-2.933,0.377-4.398,0.592c-1.459,0.241-2.941,0.415-4.39,0.715&#10;&#9;&#9;c-2.899,0.6-5.826,1.167-8.683,1.979c-1.434,0.39-2.886,0.74-4.312,1.168l-4.244,1.395c-1.421,0.458-2.838,0.928-4.22,1.49&#10;&#9;&#9;l-4.172,1.638c-22.127,9.112-41.834,24.528-56.429,43.713l-2.665,3.649c-0.879,1.222-1.802,2.416-2.58,3.704&#10;&#9;&#9;c-1.607,2.542-3.269,5.052-4.819,7.623l-4.283,7.916c-1.35,2.673-2.569,5.407-3.805,8.129c-1.304,2.695-2.237,5.534-3.332,8.305&#10;&#9;&#9;l-1.575,4.179c-0.468,1.411-0.874,2.842-1.313,4.261l-1.289,4.261c-0.417,1.422-0.899,2.826-1.196,4.278l-1.983,8.643&#10;&#9;&#9;c-0.36,1.432-0.594,2.887-0.822,4.344l-0.699,4.361l-0.694,4.351c-0.255,1.445-0.315,2.919-0.477,4.376l-0.807,8.742&#10;&#9;&#9;c-0.166,2.918-0.214,5.842-0.306,8.753c-0.26,5.819,0.106,11.646,0.361,17.43c0.07,2.891,0.504,5.781,0.789,8.658&#10;&#9;&#9;c0.367,2.879,0.668,5.747,1.095,8.604c3.207-22.895,6.993-45.247,13.681-66.487c3.343-10.609,7.452-20.861,12.259-30.69&#10;&#9;&#9;c1.297-2.409,2.44-4.894,3.761-7.279l4.124-7.053c1.451-2.298,2.966-4.551,4.441-6.831c0.711-1.16,1.559-2.219,2.363-3.31&#10;&#9;&#9;l2.426-3.263C331.039,918.569,347.714,904.11,367.029,893.702z" style="fill: rgb(0, 255, 0);"/>
	<path fill="#C69C6D" d="M517.087,1019.427c-1.238-4.708-2.901-9.366-5.575-13.5c-0.713,4.86-1.391,9.38-2.201,13.857&#10;&#9;&#9;c-0.788,4.463-1.596,8.85-2.511,13.223l-5.255,26.203c-1.71,8.776-3.346,17.624-4.648,26.66c-1.25,9.063-2.368,18.207-2.367,27.976&#10;&#9;&#9;c3.225-3.723,5.784-7.765,8.172-11.876c2.362-4.124,4.404-8.381,6.264-12.713c3.663-8.68,6.4-17.721,8.204-27.006&#10;&#9;&#9;c1.781-9.281,2.685-18.833,2.094-28.464C518.962,1028.98,518.305,1024.152,517.087,1019.427z" style="fill: rgb(0, 255, 0);"/>
	<path fill="#C69C6D" d="M430.984,913.894c-4.333-0.305-8.763,0.032-13.124,0.838c-4.375,0.792-8.619,2.164-12.814,3.727&#10;&#9;&#9;c-8.289,3.323-16.07,7.931-23.199,13.339c-14.187,10.946-25.776,24.98-34.686,40.323c-8.969,15.352-15.137,32.137-18.888,49.245&#10;&#9;&#9;c-3.638,17.145-4.893,34.686-3.017,51.941c2.519-8.333,4.631-16.564,7.14-24.643c2.498-8.071,5.008-16.046,7.908-23.838&#10;&#9;&#9;c5.744-15.585,12.421-30.629,20.626-44.722c8.175-14.091,17.749-27.311,29.136-38.921&#10;&#9;&#9;C401.551,929.727,414.58,919.494,430.984,913.894z" style="fill: rgb(0, 255, 0);"/>
	<path fill="#C69C6D" d="M437.86,957.947c0.756-0.553,1.494-1.185,2.306-1.687c1.565-1.159,3.319-1.996,5.121-2.923&#10;&#9;&#9;c-4.005,0.048-8.184,0.958-11.984,2.789c-3.834,1.777-7.358,4.281-10.469,7.151c-6.253,5.772-11.008,12.803-14.973,19.995&#10;&#9;&#9;c-3.96,7.227-7.107,14.743-9.855,22.303c-1.392,3.777-2.597,7.597-3.817,11.396c-1.174,3.814-2.249,7.64-3.324,11.452&#10;&#9;&#9;c-4.179,15.286-7.364,30.607-10.75,45.734c-1.682,7.57-3.417,15.091-5.45,22.539c-2.041,7.462-4.398,14.785-7.775,22.079&#10;&#9;&#9;c3.078-2.591,5.84-5.624,8.295-8.865c2.479-3.234,4.669-6.675,6.697-10.191c4.028-7.056,7.294-14.455,10.207-21.909&#10;&#9;&#9;c5.767-14.948,10.047-30.173,14.134-45.209c0.985-3.771,2.016-7.515,3.041-11.245c0.976-3.745,2.052-7.445,3.076-11.145&#10;&#9;&#9;c2.088-7.389,4.297-14.677,6.866-21.75c2.573-7.068,5.534-13.919,9.525-20.103c1.981-3.111,4.296-5.975,7.007-8.552&#10;&#9;&#9;C436.401,959.135,437.15,958.588,437.86,957.947z" style="fill: rgb(0, 255, 0);"/>
	<path fill="#C69C6D" d="M464.245,1003.059c-1.15,1.354-2.298,2.765-3.266,4.244c-1.054,1.46-1.918,2.994-2.814,4.528&#10;&#9;&#9;c-3.477,6.185-5.989,12.727-8.115,19.285c-4.152,13.161-6.699,26.497-8.737,39.75c-2.022,13.26-3.406,26.469-4.793,39.612&#10;&#9;&#9;c-0.69,6.572-1.397,13.122-2.231,19.681c-0.829,6.576-1.838,13.089-3.305,19.843c0.561-0.652,1.111-1.318,1.642-2.001&#10;&#9;&#9;c0.53-0.683,1.105-1.356,1.585-2.071c0.949-1.434,2-2.863,2.829-4.373c1.787-2.984,3.346-6.093,4.771-9.246&#10;&#9;&#9;c2.837-6.32,5.068-12.846,6.989-19.406c3.764-13.142,6.258-26.441,8.249-39.657c2.01-13.213,3.444-26.385,5.164-39.362&#10;&#9;&#9;c0.861-6.487,1.809-12.925,3.201-19.22l0.533-2.365c0.169-0.799,0.434-1.536,0.627-2.325c0.376-1.592,0.94-3.062,1.44-4.621&#10;&#9;&#9;c1.161-2.989,2.481-5.986,4.602-8.739C469.432,997.999,466.634,1000.393,464.245,1003.059z" style="fill: rgb(0, 255, 0);"/>
	<path fill="#C69C6D" d="M796.064,232.107c-1.452,0.78-2.917,1.456-4.256,2.399c-1.342,0.928-2.73,1.703-3.943,2.785&#10;&#9;&#9;c-1.237,1.028-2.479,2.001-3.599,3.132c-1.107,1.154-2.193,2.292-3.198,3.501c1.583-0.282,3.085-0.634,4.566-0.971&#10;&#9;&#9;c0.725-0.198,1.487-0.304,2.23-0.435c0.747-0.12,1.47-0.275,2.197-0.407c1.435-0.312,2.917-0.419,4.335-0.628&#10;&#9;&#9;c1.411-0.235,2.848-0.296,4.248-0.398c5.611-0.39,10.994-0.075,16.295,0.705c10.588,1.579,21.017,5.135,32.25,8.686&#10;&#9;&#9;c5.607,1.769,11.407,3.514,17.457,4.917c6.044,1.397,12.353,2.463,18.822,2.728c6.454,0.291,13.074-0.27,19.358-1.94&#10;&#9;&#9;c6.272-1.697,12.203-4.43,17.112-8.423c-1.608-0.058-3.149-0.03-4.665-0.013c-1.521-0.005-3.039-0.116-4.504-0.125&#10;&#9;&#9;c-2.964-0.172-5.834-0.399-8.653-0.801c-5.631-0.759-11.013-2.034-16.359-3.564c-10.674-3.076-21.261-7.36-32.845-11.003&#10;&#9;&#9;c-5.783-1.81-11.817-3.453-18.146-4.522c-6.314-1.068-12.953-1.551-19.601-0.925C808.527,227.396,801.929,229.178,796.064,232.107z&#10;&#9;&#9;" style="fill: rgb(0, 255, 0);"/>
	<path fill="#C69C6D" d="M816.128,204.482c1.121,0.327,2.194,0.561,3.249,0.802c1.047,0.197,2.092,0.531,3.099,0.741&#10;&#9;&#9;c1.011,0.231,2.002,0.488,2.978,0.765c0.488,0.142,0.969,0.247,1.446,0.366l1.424,0.433c3.763,1.079,7.265,2.326,10.672,3.66&#10;&#9;&#9;c6.796,2.686,13.289,5.894,20.455,9.163c3.576,1.625,7.312,3.24,11.288,4.673c3.972,1.425,8.194,2.683,12.66,3.417&#10;&#9;&#9;c4.448,0.753,9.164,0.944,13.76,0.243c4.586-0.732,9.037-2.304,12.643-5.13c-1.108-0.388-2.158-0.672-3.18-0.979l-2.979-0.997&#10;&#9;&#9;c-1.929-0.727-3.747-1.421-5.494-2.231c-3.496-1.567-6.72-3.345-9.981-5.172c-6.485-3.667-13.158-7.752-20.843-11.227&#10;&#9;&#9;c-3.83-1.729-7.899-3.291-12.201-4.459c-4.295-1.169-8.831-1.938-13.432-2.043C832.5,196.269,823.125,198.731,816.128,204.482z" style="fill: rgb(0, 255, 0);"/>
	<path fill="#C69C6D" d="M847.836,178.223l2.334,1.053c1.506,0.72,2.913,1.398,4.24,2.12c2.659,1.417,4.988,2.912,7.249,4.442&#10;&#9;&#9;c4.484,3.063,8.861,6.405,14.022,9.783c5.124,3.339,11.009,6.673,17.743,8.707c3.348,1.023,6.906,1.669,10.51,1.795&#10;&#9;&#9;c1.804,0.052,3.62-0.021,5.428-0.279c1.805-0.244,3.603-0.672,5.371-1.362c-0.658-0.72-1.316-1.334-1.957-1.949&#10;&#9;&#9;c-0.645-0.597-1.262-1.233-1.885-1.79c-1.226-1.181-2.421-2.262-3.567-3.376c-2.313-2.164-4.496-4.253-6.722-6.258&#10;&#9;&#9;c-4.432-4.015-9.003-7.912-14.505-11.501c-2.747-1.78-5.726-3.466-8.992-4.875c-3.259-1.406-6.821-2.534-10.566-3.066&#10;&#9;&#9;c-7.481-1.118-15.595,0.439-21.206,5.423C846.204,177.531,847.032,177.874,847.836,178.223z" style="fill: rgb(0, 255, 0);"/>
	<path fill="#C69C6D" d="M874.805,145.442c-0.931-0.126-1.908-0.111-2.855-0.138c-1.905-0.02-3.774-0.031-5.66,0.308&#10;&#9;&#9;c-0.942,0.166-1.867,0.309-2.785,0.505c-0.919,0.202-1.82,0.372-2.723,0.745c-1.797,0.642-3.544,1.366-5.213,2.326&#10;&#9;&#9;c1.631,1.176,3.184,2.116,4.687,2.973c0.754,0.415,1.482,0.878,2.193,1.362c0.713,0.467,1.419,0.88,2.108,1.317&#10;&#9;&#9;c1.407,0.739,2.691,1.772,3.988,2.57c0.638,0.44,1.298,0.762,1.909,1.234c0.621,0.442,1.23,0.888,1.844,1.297&#10;&#9;&#9;c4.879,3.357,9.427,6.766,14.488,10.321c5.046,3.512,10.575,7.233,17.096,10.119c1.582,0.733,3.353,1.354,5.048,1.937&#10;&#9;&#9;c1.708,0.59,3.587,0.975,5.363,1.378c1.839,0.328,3.745,0.496,5.599,0.577c1.908-0.009,3.823-0.183,5.699-0.572&#10;&#9;&#9;c-1.192-1.62-2.379-2.95-3.512-4.251c-1.089-1.424-2.196-2.632-3.243-3.915c-1.05-1.314-2.09-2.496-3.13-3.745&#10;&#9;&#9;c-1.035-1.283-2.086-2.393-3.158-3.635c-4.265-4.773-8.995-9.426-14.774-13.517c-5.735-4.058-12.645-7.475-20.162-8.767&#10;&#9;&#9;C876.676,145.703,875.735,145.575,874.805,145.442z" style="fill: rgb(0, 255, 0);"/>
	<path fill="#C69C6D" d="M893.058,127.835c-1.711,0.36-3.397,0.886-5.004,1.596c-0.805,0.364-1.59,0.743-2.35,1.196&#10;&#9;&#9;c-0.759,0.484-1.496,0.964-2.196,1.544c0.786,0.509,1.537,0.918,2.265,1.33c0.727,0.395,1.431,0.854,2.115,1.223&#10;&#9;&#9;c0.683,0.384,1.347,0.807,1.994,1.194c0.647,0.376,1.28,0.765,1.895,1.169c2.471,1.534,4.728,3.064,6.959,4.54&#10;&#9;&#9;c4.436,2.967,8.782,5.907,13.59,8.771c4.802,2.836,10.017,5.64,16.105,7.691c3.033,1.02,6.32,1.813,9.795,2.11&#10;&#9;&#9;c0.876,0.051,1.762,0.095,2.639,0.089c0.917-0.056,1.767-0.043,2.683-0.206c1.767-0.214,3.571-0.738,5.149-1.616&#10;&#9;&#9;c-2.722-2.425-4.618-4.57-6.573-6.808c-1.936-2.193-3.829-4.359-5.886-6.425c-4.081-4.149-8.723-8.044-14.176-11.269&#10;&#9;&#9;c-5.429-3.194-11.715-5.792-18.605-6.56C900.035,127.008,896.486,127.118,893.058,127.835z" style="fill: rgb(0, 255, 0);"/>
	<path fill="#C69C6D" d="M911.599,103.593c-2.613,1.04-5.047,2.617-6.726,5.091c2.529,1.59,4.425,2.894,6.099,4.229&#10;&#9;&#9;c1.667,1.297,3.093,2.551,4.536,3.702c2.851,2.328,5.808,4.435,9.37,6.37c3.549,1.901,7.662,3.656,12.601,4.48&#10;&#9;&#9;c2.454,0.408,5.146,0.532,7.9,0.124c2.731-0.446,5.605-1.4,7.701-3.566c-2.209-2.031-3.621-3.747-5-5.426&#10;&#9;&#9;c-1.364-1.644-2.639-3.214-4.053-4.674c-2.798-2.933-6.07-5.595-10.096-7.758c-4-2.126-8.809-3.832-14.217-3.934&#10;&#9;&#9;C917.036,102.174,914.222,102.586,911.599,103.593z" style="fill: rgb(0, 255, 0);"/>
	<path fill="#C69C6D" d="M938.964,97.681c1.067,0.638,2.358,1.243,3.886,1.714c1.515,0.465,3.313,0.811,5.261,0.801&#10;&#9;&#9;c0.956,0.003,2.039-0.118,3.016-0.329c1.022-0.222,2.062-0.619,2.989-1.053c0.962-0.557,1.848-1.179,2.606-1.947&#10;&#9;&#9;c0.753-0.828,1.385-1.804,1.836-2.9c-3.408-3.488-4.042-5.876-5.055-7.814c-0.966-1.892-2.387-3.467-4.783-4.896&#10;&#9;&#9;c-2.347-1.374-5.71-2.6-9.608-2.376c-3.851,0.258-8.034,1.997-10.135,6.321c3.136,3.681,4.306,5.979,5.446,7.913&#10;&#9;&#9;C935.535,94.986,936.793,96.367,938.964,97.681z" style="fill: rgb(0, 255, 0);"/>
	<path fill="#C69C6D" d="M772.122,273.103c-0.659,0.594-1.324,1.168-1.964,1.771c-0.621,0.628-1.219,1.281-1.818,1.924&#10;&#9;&#9;c-2.455,2.491-4.526,5.343-6.447,8.212c3.294-1.251,6.294-2.714,9.43-3.836c0.77-0.301,1.539-0.591,2.286-0.907&#10;&#9;&#9;c0.771-0.276,1.555-0.516,2.323-0.773c1.552-0.484,3.006-1.115,4.574-1.462c6.079-1.8,12.079-2.924,18.056-3.324&#10;&#9;&#9;c11.94-0.889,23.83,1.017,36.447,3.394c6.303,1.183,12.779,2.489,19.499,3.494c1.678,0.247,3.364,0.486,5.08,0.7&#10;&#9;&#9;c0.855,0.105,1.704,0.235,2.562,0.317l2.607,0.227c3.459,0.336,7.001,0.484,10.568,0.439c7.117-0.084,14.427-0.995,21.29-3.297&#10;&#9;&#9;c6.849-2.297,13.192-5.926,18.116-10.858c-1.757,0.221-3.43,0.516-5.074,0.795c-1.679,0.195-3.334,0.35-4.935,0.563l-4.837,0.26&#10;&#9;&#9;c-1.615-0.036-3.182,0.023-4.75-0.031c-6.28-0.221-12.366-1.119-18.477-2.394c-12.207-2.498-24.588-6.464-38.135-8.99&#10;&#9;&#9;c-6.758-1.256-13.802-2.172-21.043-2.201c-7.222-0.046-14.655,0.776-21.742,2.881c-7.086,2.091-13.762,5.407-19.487,9.71&#10;&#9;&#9;C774.782,270.73,773.459,271.946,772.122,273.103z" style="fill: rgb(0, 255, 0);"/>
	<path fill="#C69C6D" d="M896.903,298.271c-1.331,0.243-2.696,0.348-3.982,0.561c-0.643,0.108-1.299,0.166-1.951,0.218l-1.93,0.172&#10;&#9;&#9;c-1.258,0.159-2.546,0.163-3.793,0.219c-5.004,0.195-9.816-0.108-14.606-0.664c-9.567-1.131-19.165-3.436-29.581-5.328&#10;&#9;&#9;c-5.2-0.937-10.594-1.767-16.208-2.162c-5.603-0.393-11.452-0.351-17.312,0.601c-5.846,0.912-11.689,2.863-16.789,5.888&#10;&#9;&#9;c-5.09,3.042-9.435,7.053-12.423,11.886c1.416-0.318,2.74-0.696,4.042-1.055c1.313-0.337,2.646-0.576,3.898-0.894&#10;&#9;&#9;c1.282-0.263,2.569-0.442,3.806-0.666c1.247-0.197,2.507-0.294,3.721-0.439c4.91-0.451,9.627-0.269,14.357,0.255&#10;&#9;&#9;c9.436,1.063,19.046,3.469,29.497,5.382c5.215,0.953,10.631,1.77,16.239,2.149c5.601,0.375,11.412,0.317,17.208-0.582&#10;&#9;&#9;c5.787-0.868,11.542-2.628,16.722-5.34c2.59-1.353,5.028-2.956,7.252-4.767c1.097-0.94,2.185-1.845,3.176-2.872&#10;&#9;&#9;c0.972-1.061,1.923-2.106,2.792-3.223C899.597,297.788,898.24,298.038,896.903,298.271z" style="fill: rgb(0, 255, 0);"/>
	<path fill="#C69C6D" d="M877.315,323.865c-7.722-0.198-15.65-0.695-23.926-0.584c-8.243,0.126-16.924,0.759-25.519,3.356&#10;&#9;&#9;c-4.268,1.327-8.509,3.117-12.313,5.654c-3.78,2.54-7.164,5.752-9.29,9.692c8.503-2.504,15.897-2.979,23.619-3.021&#10;&#9;&#9;c7.669-0.041,15.505,0.324,23.7,0.236c8.166-0.112,16.74-0.605,25.353-2.904c4.28-1.185,8.571-2.798,12.478-5.185&#10;&#9;&#9;c3.878-2.389,7.417-5.492,9.621-9.395c-4.327,1.121-8.247,1.737-12.151,1.991C885.002,323.969,881.187,323.983,877.315,323.865z" style="fill: rgb(0, 255, 0);"/>
	<path fill="#C69C6D" d="M539.45,925.946c0,26.843,14.123,33.964,26.783,38.894c12.145,4.73,19.475,8.945,25.961,9.28v0.033&#10;&#9;&#9;c0.136,0,0.275-0.013,0.411-0.016c0.136,0.004,0.275,0.016,0.411,0.016v-0.033c6.486-0.335,13.816-4.55,25.961-9.28&#10;&#9;&#9;c12.66-4.93,26.783-12.052,26.783-38.894s-19.721-35.06-29.034-35.06c-9.184,0-14.117,2.659-24.12,2.732&#10;&#9;&#9;c-10.004-0.073-14.936-2.732-24.12-2.732C559.171,890.886,539.45,899.103,539.45,925.946z M610.601,948.622&#10;&#9;&#9;c2.129-1.131,4.207-1.884,6.325-2.38c2.132-0.471,4.254-0.762,6.604-0.72c2.394,0.092,4.81,0.216,8.161,1.105&#10;&#9;&#9;c-0.199,0.832-0.472,1.602-0.804,2.307c-0.319,0.734-0.711,1.37-1.133,1.974c-0.428,0.593-0.876,1.187-1.366,1.708&#10;&#9;&#9;c-0.489,0.516-1.012,0.981-1.544,1.445c-2.16,1.759-4.648,2.942-7.226,3.541c-2.581,0.61-5.263,0.705-7.929,0.148&#10;&#9;&#9;c-1.336-0.306-2.661-0.718-3.969-1.372c-1.301-0.667-2.601-1.468-3.799-2.754C606.326,951.181,608.462,949.799,610.601,948.622z&#10;&#9;&#9; M577.49,956.377c-1.308,0.654-2.634,1.066-3.969,1.372c-2.665,0.557-5.348,0.462-7.929-0.148&#10;&#9;&#9;c-2.578-0.599-5.066-1.782-7.226-3.541c-0.532-0.464-1.055-0.928-1.544-1.445c-0.49-0.52-0.938-1.115-1.366-1.708&#10;&#9;&#9;c-0.422-0.604-0.814-1.24-1.133-1.974c-0.333-0.705-0.605-1.474-0.804-2.307c3.351-0.889,5.767-1.013,8.161-1.105&#10;&#9;&#9;c2.35-0.042,4.472,0.249,6.604,0.72c2.118,0.496,4.196,1.249,6.324,2.38c2.139,1.177,4.276,2.56,6.68,5.001&#10;&#9;&#9;C580.091,954.909,578.791,955.71,577.49,956.377z M558.027,905.776c4.02-3.327,9.338-5.175,14.445-4.976&#10;&#9;&#9;c5.107,0.179,9.912,2.287,13.054,5.887c-4.768,0.089-8.761,0.452-12.293,1.586c-3.519,1.086-6.503,2.751-9.178,4.912&#10;&#9;&#9;c-2.667,2.171-5.019,4.882-7.119,8.128c-2.15,3.242-3.917,6.966-6.128,11.208c-1.779-4.408-1.953-9.319-0.782-14.087&#10;&#9;&#9;C551.221,913.688,553.962,909.073,558.027,905.776z" style="fill: rgb(0, 255, 0);"/>
	<path fill="#C69C6D" d="M506.581,726.544c10.333-17.985,15.028-39.536,13.4-61.098c-0.455-5.393-1.323-10.793-2.695-16.108&#10;&#9;&#9;c-1.326-5.329-3.197-10.556-5.513-15.621c-2.348-5.054-5.273-9.865-8.596-14.4c-0.956-1.273-1.956-2.515-2.982-3.738&#10;&#9;&#9;c-2.594-3.092-5.401-6.014-8.442-8.671c-4.265-3.68-8.874-6.927-13.7-9.744c-4.841-2.681-10.072-5.061-15.493-6.74&#10;&#9;&#9;c-10.04-3.091-20.756-3.758-30.896-2.241c-0.854,0.128-1.705,0.265-2.55,0.424c-10.915,2.02-21.034,6.348-30.009,12.007&#10;&#9;&#9;c-4.487,2.847-8.725,6-12.667,9.453c-3.931,3.458-7.615,7.186-10.785,11.297c8.58-5.493,17.485-10.052,26.592-13.61&#10;&#9;&#9;c-1.342,11.063,0.834,22.866,6.446,33.295c3.192,5.955,7.494,11.388,12.546,15.982c5.052,4.6,10.843,8.364,17.004,11.185&#10;&#9;&#9;c12.347,5.636,26.037,7.61,39.081,6.207c6.684-0.742,13.254-2.322,19.404-4.761c-2.527,5.001-6.196,9.641-10.69,14.194&#10;&#9;&#9;c-4.754,4.919-10.546,9.31-16.708,14.75c4.1,0.521,8.152,0.229,12.173-0.512c4.016-0.76,7.953-2.12,11.723-4.024&#10;&#9;&#9;c3.759-1.916,7.326-4.428,10.473-7.523c2.141-2.095,4.072-4.477,5.713-7.076c0.542,5.569,0.75,11.22,0.625,16.913&#10;&#9;&#9;C509.813,706.344,508.585,716.383,506.581,726.544z M501.456,651.07c-0.152,3.862-0.731,7.444-1.691,10.832&#10;&#9;&#9;c-1.738,0.148-3.468,0.273-5.19,0.349c-5.93,0.283-11.748,0.216-17.447-0.315c-11.382-1.017-22.322-3.642-32.244-8.186&#10;&#9;&#9;c-9.907-4.562-18.694-11.061-25.722-19.594c-3.542-4.25-6.592-9.037-9.233-14.251c-0.657-1.306-1.354-2.618-1.904-3.992&#10;&#9;&#9;c-0.575-1.366-1.26-2.727-1.761-4.148c-0.506-1.418-1.144-2.836-1.632-4.297c-0.061-0.179-0.125-0.361-0.187-0.541&#10;&#9;&#9;c6.942-2.553,14.013-4.436,21.061-5.37c-0.535,2.415-0.821,4.917-0.821,7.484c0,19.968,17.046,36.155,38.073,36.155&#10;&#9;&#9;c12.127,0,22.921-5.391,29.893-13.779c2.065,2.855,3.924,5.874,5.63,9c1.168,2.203,2.236,4.47,3.22,6.783&#10;&#9;&#9;C501.525,648.511,501.521,649.806,501.456,651.07z" style="fill: rgb(0, 255, 0);"/>
	<path fill="#C69C6D" d="M219.159,234.594c9.179,30.222,21.297,59.573,36.574,87.216c7.674,13.795,16.1,27.183,25.544,39.816&#10;&#9;&#9;c4.73,6.307,9.651,12.464,14.892,18.334c0.919,1.033,1.856,2.05,2.79,3.069c-0.002,0.002-0.003,0.004-0.005,0.006&#10;&#9;&#9;c0.107,0.117,0.219,0.231,0.326,0.348c1.617,1.758,3.247,3.503,4.901,5.221l4.184,4.141c1.417,1.357,2.849,2.695,4.291,4.019&#10;&#9;&#9;c-0.003-0.004-0.006-0.009-0.009-0.013c0.003,0.003,0.006,0.006,0.009,0.008c-0.987-1.443-1.986-2.882-2.99-4.309&#10;&#9;&#9;c-0.118-0.168-0.233-0.34-0.352-0.508l-0.746-1.11l-2.514-3.742c-1.338-1.994-2.65-3.999-3.952-6.008&#10;&#9;&#9;c-0.81-1.253-1.619-2.506-2.406-3.772c-3.324-5.329-6.558-10.691-9.675-16.111c3.122,2.697,6.512,4.728,9.703,6.357&#10;&#9;&#9;c3.902,1.98,7.461,3.382,10.966,4.84c3.568,1.429,7.033,3.257,11.808,6.29c1.529-5.41-0.275-11.261-3.602-15.706&#10;&#9;&#9;c-0.84-1.053-1.74-2.143-2.691-3.087c-0.484-0.448-0.964-0.909-1.468-1.342c-0.496-0.443-1.005-0.89-1.514-1.249&#10;&#9;&#9;c-2.044-1.564-4.165-2.851-6.246-3.917c-4.193-2.139-8.213-3.498-12.303-4.63c-4.016-1.057-7.978-2.032-13.225-3.079&#10;&#9;&#9;c-5.145-9.706-9.977-19.556-14.545-29.516c-12.824-27.963-23.564-56.811-32.513-86.179c-8.85-29.385-16.02-59.326-20.156-89.677&#10;&#9;&#9;c-2.06-15.168-3.317-30.451-3.019-45.719c0.026-1.91,0.121-3.812,0.2-5.721c0.136-1.898,0.227-3.811,0.417-5.705&#10;&#9;&#9;c0.294-3.811,0.851-7.58,1.482-11.351c0.632-3.775,1.584-7.481,2.762-11.135c1.144-3.671,2.651-7.24,4.548-10.671&#10;&#9;&#9;c-2.649,2.899-4.816,6.248-6.746,9.724c-1.866,3.509-3.483,7.178-4.802,10.942c-2.697,7.523-4.417,15.365-5.616,23.24&#10;&#9;&#9;c-2.334,15.784-2.546,31.763-1.645,47.585C203.735,173.17,210.069,204.356,219.159,234.594z" style="fill: rgb(0, 255, 0);"/>
	<path fill="#C69C6D" d="M544.744,372.116c0.541-4.706,0.969-9.452,1.28-14.248c-1.979,4.349-3.84,8.747-5.589,13.185&#10;&#9;&#9;c-12.247,31.078-20.045,65.254-18,98.809c0.436,9.787,1.966,19.402,3.627,28.807c1.759,9.346,3.739,18.462,5.396,27.535&#10;&#9;&#9;c3.565,18.128,4.894,36.598,6.349,55.717c1.218-4.611,2.317-9.275,3.299-13.974l0.375-1.763c0,0,0.245-1.647,0.263-1.768&#10;&#9;&#9;c5.731-38.557-4.278-75.993-3.841-114.565C538.197,423.805,541.776,397.952,544.744,372.116z" style="fill: rgb(0, 255, 0);"/>
	<path fill="#C69C6D" d="M479.558,399.995c-1.941,7.588-2.835,15.44-3.021,23.245c-0.315,15.651,2.145,31.032,5.63,45.802&#10;&#9;&#9;c3.501,14.803,8.076,29.075,12.667,43.202c4.646,14.154,9.232,28.06,13.242,42.836c1.397-7.567,1.582-15.309,1.292-22.971&#10;&#9;&#9;c-0.32-7.67-1.228-15.274-2.403-22.776c-2.403-15.005-5.934-29.587-9.308-43.946c-3.363-14.368-6.671-28.523-8.619-42.815&#10;&#9;&#9;c-1.992-14.311-2.459-28.69-0.334-43.886C484.433,385.092,481.515,392.425,479.558,399.995z" style="fill: rgb(0, 255, 0);"/>
	<path fill="#C69C6D" d="M460.357,504.415c-9.453-10.848-20.784-20.305-33.532-27.502c-12.721-7.213-26.881-12.088-41.347-13.95&#10;&#9;&#9;c-14.45-1.822-29.2-0.798-42.692,3.919c3.546,0.645,7.018,1.16,10.44,1.575c3.427,0.695,6.807,1.236,10.147,1.831l9.886,2.229&#10;&#9;&#9;c3.229,0.966,6.467,1.708,9.634,2.694c12.685,3.886,24.696,9.134,36.117,15.566c11.422,6.436,22.235,14.066,32.641,22.571&#10;&#9;&#9;c5.245,4.214,10.306,8.727,15.428,13.316l7.664,7.019c2.488,2.428,5.087,4.809,7.811,7.152c-1.303-3.304-2.732-6.57-4.272-9.789&#10;&#9;&#9;c-1.564-3.202-3.412-6.232-5.199-9.336C469.322,515.654,465.099,509.835,460.357,504.415z" style="fill: rgb(0, 255, 0);"/>
	<path fill="#C69C6D" d="M388.642,535.06c10.127,0.253,20.238,0.953,30.478,1.975c10.248,0.97,20.471,2.478,31.483,3.79&#10;&#9;&#9;c-3.601-0.429-11.167-8.183-14.957-10.149c-14.322-7.427-30.499-11.098-46.58-11.529c-11.12-0.298-22.305,0.982-32.998,3.967&#10;&#9;&#9;c-10.662,3.043-20.94,7.556-29.715,14.436c11.128-0.602,21.471-1.627,31.775-2.071C368.399,534.971,378.515,534.799,388.642,535.06&#10;&#9;&#9;z" style="fill: rgb(0, 255, 0);"/>
	<path fill="#C69C6D" d="M365.275,506.468c8.688-0.647,17.379-0.988,26.149-0.936c8.778,0.022,17.603,0.553,26.643,1.234&#10;&#9;&#9;c-16.298-7.968-34.66-11.673-52.851-12.773c-18.257-1.104-36.296,0.336-53.815,1.561c-17.546,1.249-34.712,2.216-51.889,1.036&#10;&#9;&#9;c-8.588-0.551-17.17-1.629-25.78-3.182c-8.623-1.523-17.219-3.625-26.023-5.816c14.676,10.598,32.016,17.759,50.122,21.402&#10;&#9;&#9;c9.049,1.849,18.271,2.768,27.434,3.091c2.293,0.106,4.584,0.121,6.864,0.106l3.427-0.005l3.41-0.071&#10;&#9;&#9;c2.278-0.055,4.54-0.172,6.798-0.291c2.266-0.106,4.512-0.245,6.759-0.396C330.501,510.146,347.909,507.69,365.275,506.468z" style="fill: rgb(0, 255, 0);"/>
	<path fill="#C69C6D" d="M249.413,453.357l2.098,2.217c0.719,0.709,1.469,1.377,2.207,2.07c1.478,1.39,3.035,2.654,4.613,3.896&#10;&#9;&#9;c6.344,4.926,13.325,8.875,20.642,11.977c7.324,3.087,15.002,5.352,22.913,6.527c3.959,0.569,7.97,0.884,12.007,0.861&#10;&#9;&#9;c2.032-0.062,4.051-0.133,6.081-0.35c2.038-0.251,4.069-0.566,6.104-1.076c-6.98-4.594-13.779-7.998-20.548-11.381&#10;&#9;&#9;c-6.769-3.317-13.529-6.332-20.34-9.235c-6.814-2.895-13.671-5.649-20.71-8.246c-7.095-2.566-14.152-5.099-22.216-7.293&#10;&#9;&#9;C244.173,447.056,246.672,450.363,249.413,453.357z" style="fill: rgb(0, 255, 0);"/>
	<path fill="#C69C6D" d="M229.717,534.197c0.863,0.525,1.746,1.003,2.623,1.508c1.757,1.014,3.562,1.888,5.384,2.734&#10;&#9;&#9;c7.304,3.34,15.005,5.583,22.838,6.925c7.836,1.325,15.829,1.769,23.799,1.099c3.984-0.354,7.96-0.966,11.885-1.915&#10;&#9;&#9;c1.964-0.526,3.912-1.058,5.839-1.735c1.926-0.712,3.831-1.484,5.696-2.447c-7.847-2.871-15.246-4.625-22.61-6.366&#10;&#9;&#9;c-7.35-1.676-14.621-3.061-21.916-4.325c-7.296-1.256-14.602-2.364-22.05-3.278c-7.494-0.871-14.944-1.718-23.296-2.005&#10;&#9;&#9;c2.715,3.195,5.905,5.842,9.26,8.127L229.717,534.197z" style="fill: rgb(0, 255, 0);"/>
	<path fill="#C69C6D" d="M259.618,418.127c6.48,6.244,14.829,10.656,23.478,13.702c8.694,3.065,17.736,4.694,26.667,5.865&#10;&#9;&#9;c17.916,2.216,35.514,2.42,52.619,3.668c17.108,1.206,33.803,3.408,49.815,8.504c8.022,2.493,15.829,5.769,23.411,9.772&#10;&#9;&#9;c7.613,3.971,14.923,8.718,22.324,13.818c-9.85-14.931-24.31-27.357-41.13-35.184c-8.374-3.964-17.239-6.86-26.207-8.902&#10;&#9;&#9;c-2.237-0.582-4.495-0.952-6.751-1.368c-2.256-0.443-4.513-0.766-6.773-1.096c-2.261-0.357-4.523-0.573-6.781-0.806&#10;&#9;&#9;c-2.262-0.255-4.516-0.444-6.767-0.612c-18.047-1.326-35.736-0.432-52.995-0.288C293.244,425.333,276.328,424.773,259.618,418.127z&#10;&#9;&#9;" style="fill: rgb(0, 255, 0);"/>
	<path fill="#C69C6D" d="M352.099,365.538c2.016,5.119,5.077,9.776,8.679,14c3.619,4.216,7.854,7.902,12.32,11.153&#10;&#9;&#9;c9.001,6.478,18.84,11.009,28.27,15.109c9.483,4.083,18.653,7.832,27.635,12.197c4.509,2.157,8.948,4.508,13.432,7.01&#10;&#9;&#9;c4.505,2.485,8.954,5.214,13.749,7.912c-4.536-9.97-11.892-18.49-20.438-25.435c-8.583-6.946-18.379-12.097-28.037-16.285&#10;&#9;&#9;c-9.697-4.212-19.249-7.551-28.409-11.4c-4.603-1.903-9.102-3.99-13.597-6.34C361.186,371.125,356.784,368.418,352.099,365.538z" style="fill: rgb(0, 255, 0);"/>
	<path fill="#C69C6D" d="M201.726,558.93c1.503,1.999,3.292,3.752,5.158,5.364c0.919,0.85,1.901,1.579,2.88,2.335&#10;&#9;&#9;c0.984,0.743,1.982,1.491,3.012,2.158l3.124,1.984c1.047,0.669,2.149,1.186,3.229,1.789c1.083,0.591,2.185,1.147,3.295,1.685&#10;&#9;&#9;c1.12,0.498,2.242,1.008,3.38,1.478c9.091,3.805,18.797,5.993,28.567,6.915c2.447,0.139,4.897,0.24,7.346,0.307&#10;&#9;&#9;c1.225,0.003,2.448,0.11,3.671,0.025l3.664-0.2c1.22-0.072,2.438-0.159,3.655-0.257c1.215-0.109,2.435-0.157,3.64-0.365&#10;&#9;&#9;c2.413-0.383,4.818-0.788,7.206-1.256c1.195-0.223,2.385-0.479,3.569-0.745c1.176-0.324,2.351-0.642,3.516-1.009&#10;&#9;&#9;c2.336-0.69,4.648-1.449,6.937-2.239c2.287-0.801,4.504-1.9,6.707-2.949c2.198-1.074,4.364-2.205,6.46-3.517&#10;&#9;&#9;c-4.974-0.822-9.689-0.944-14.369-1.225c-2.344-0.182-4.664-0.333-6.961-0.416c-1.151-0.063-2.293-0.077-3.432-0.097&#10;&#9;&#9;c-1.143-0.07-2.287-0.196-3.422-0.253c-2.274-0.152-4.531-0.243-6.779-0.31c-2.248-0.097-4.486-0.35-6.718-0.445l-3.345-0.162&#10;&#9;&#9;c-1.114-0.037-2.22-0.187-3.329-0.274c-2.217-0.194-4.433-0.341-6.65-0.475c-8.834-0.851-17.613-1.831-26.509-3.113&#10;&#9;&#9;c-1.109-0.173-2.234-0.304-3.359-0.449c-1.114-0.176-2.214-0.401-3.345-0.554c-2.262-0.319-4.498-0.731-6.78-1.115&#10;&#9;&#9;C211.18,560.756,206.594,559.912,201.726,558.93z" style="fill: rgb(0, 255, 0);"/>
	<path fill="#C69C6D" d="M238.11,641.758c14.722,5.734,28.777,13.043,42.876,20.699c14.099,7.658,28.194,15.847,43.169,23.039&#10;&#9;&#9;c7.499,3.554,15.227,6.866,23.292,9.377c2.042,0.577,4.057,1.19,6.116,1.682c2.083,0.44,4.109,0.982,6.225,1.255&#10;&#9;&#9;c4.144,0.775,8.431,0.933,12.579,0.795c-7.801-3.009-14.882-6.704-21.769-10.851c-6.872-4.153-13.563-8.597-20.284-13.108&#10;&#9;&#9;c-13.44-8.998-27.076-18.187-41.709-26.163c-14.596-7.963-30.219-14.825-46.801-18.687c-16.506-3.841-33.999-4.69-50.213-0.541&#10;&#9;&#9;c8.252,1.36,16.194,2.917,23.926,5.025C223.246,636.359,230.758,638.863,238.11,641.758z" style="fill: rgb(0, 255, 0);"/>
	<path fill="#C69C6D" d="M200.751,686.367l1.868-0.324c0.623-0.098,1.263-0.124,1.892-0.189c2.526-0.195,4.988-0.56,7.504-0.497&#10;&#9;&#9;l3.721-0.085l3.719,0.2c9.872,0.553,19.52,2.558,28.919,5.575c18.816,6.028,36.73,15.257,54.655,24.82&#10;&#9;&#9;c17.913,9.62,35.839,19.826,54.507,28.963c9.34,4.549,18.852,8.862,28.618,12.598c9.769,3.706,19.766,6.951,30.038,8.932&#10;&#9;&#9;c-18.123-10.331-35.257-21.298-52.546-32.407c-17.296-11.041-34.671-22.192-53.083-32.106c-4.621-2.444-9.281-4.842-14.014-7.142&#10;&#9;&#9;c-4.765-2.234-9.566-4.435-14.487-6.416c-9.833-3.956-20.04-7.328-30.637-9.384c-10.566-2.072-21.595-2.74-32.328-1.25&#10;&#9;&#9;c-10.712,1.487-21.07,5.172-29.698,11.089c2.587-0.534,5.043-1.286,7.569-1.748L200.751,686.367z" style="fill: rgb(0, 255, 0);"/>
	<path fill="#C69C6D" d="M260.115,721.955c-11.673,0.388-23.527,3.526-33.619,9.455c-10.083,5.93-18.424,14.25-23.779,24.176&#10;&#9;&#9;c5.08-2.523,9.833-5.045,14.639-7.198c4.785-2.17,9.527-4.072,14.315-5.561c9.547-3.041,19.167-4.601,29.04-4.965&#10;&#9;&#9;c9.87-0.383,19.964,0.427,30.339,1.642c5.195,0.582,10.447,1.321,15.803,2.005c5.365,0.66,10.789,1.396,16.444,1.703&#10;&#9;&#9;c-4.423-3.537-9.151-6.455-14.05-9.11c-4.908-2.63-10.032-4.869-15.338-6.755C283.306,723.631,271.825,721.535,260.115,721.955z" style="fill: rgb(0, 255, 0);"/>
	<path fill="#C69C6D" d="M212.309,601.349c6.228,3.465,12.902,5.953,19.58,8.009c13.42,4.022,26.863,6.202,39.944,8.487&#10;&#9;&#9;c13.106,2.249,25.943,4.58,38.707,7.717c6.387,1.55,12.773,3.253,19.175,5.182c6.418,1.904,12.818,4.057,19.503,6.088&#10;&#9;&#9;c-9.818-9.878-21.836-17.452-34.65-23.077c-12.835-5.637-26.477-9.255-40.015-11.591c-13.559-2.384-26.999-3.478-40.054-5.049&#10;&#9;&#9;c-6.533-0.789-13.003-1.679-19.403-3.077c-6.42-1.372-12.751-3.289-19.264-5.819C200.312,593.581,206.108,597.884,212.309,601.349z&#10;&#9;&#9;" style="fill: rgb(0, 255, 0);"/>
	<path fill="#C69C6D" d="M301.742,258.121c6.47-0.265,12.779-1.331,18.822-2.728c6.05-1.403,11.849-3.149,17.457-4.917&#10;&#9;&#9;c11.234-3.551,21.662-7.107,32.25-8.686c5.301-0.78,10.684-1.095,16.295-0.705c1.4,0.102,2.837,0.163,4.248,0.398&#10;&#9;&#9;c1.417,0.209,2.9,0.316,4.335,0.628c0.727,0.132,1.45,0.288,2.197,0.407c0.742,0.131,1.505,0.237,2.23,0.435&#10;&#9;&#9;c1.481,0.337,2.983,0.689,4.565,0.971c-1.005-1.208-2.091-2.347-3.198-3.501c-1.119-1.131-2.362-2.104-3.599-3.132&#10;&#9;&#9;c-1.214-1.083-2.601-1.857-3.943-2.785c-1.34-0.943-2.805-1.62-4.256-2.399c-5.865-2.929-12.463-4.711-19.101-5.302&#10;&#9;&#9;c-6.649-0.626-13.287-0.143-19.601,0.925c-6.329,1.069-12.362,2.712-18.146,4.522c-11.584,3.643-22.171,7.927-32.845,11.003&#10;&#9;&#9;c-5.345,1.531-10.728,2.806-16.359,3.564c-2.818,0.402-5.688,0.629-8.653,0.801c-1.465,0.009-2.983,0.12-4.504,0.125&#10;&#9;&#9;c-1.516-0.016-3.057-0.045-4.665,0.013c4.908,3.992,10.839,6.726,17.112,8.423C288.668,257.852,295.287,258.412,301.742,258.121z" style="fill: rgb(0, 255, 0);"/>
	<path fill="#C69C6D" d="M317.882,203.009c-7.685,3.475-14.358,7.56-20.843,11.227c-3.261,1.827-6.485,3.604-9.981,5.172&#10;&#9;&#9;c-1.747,0.81-3.565,1.504-5.494,2.231l-2.979,0.997c-1.022,0.307-2.072,0.591-3.179,0.979c3.607,2.826,8.058,4.398,12.643,5.13&#10;&#9;&#9;c4.596,0.701,9.312,0.51,13.76-0.243c4.466-0.734,8.687-1.992,12.66-3.417c3.976-1.433,7.712-3.047,11.288-4.673&#10;&#9;&#9;c7.165-3.269,13.659-6.477,20.454-9.163c3.407-1.334,6.909-2.581,10.672-3.66l1.424-0.433c0.478-0.119,0.959-0.224,1.447-0.366&#10;&#9;&#9;c0.976-0.276,1.968-0.534,2.978-0.765c1.007-0.21,2.052-0.544,3.099-0.741c1.055-0.241,2.128-0.474,3.249-0.802&#10;&#9;&#9;c-6.997-5.751-16.373-8.213-25.566-7.976c-4.601,0.105-9.137,0.874-13.432,2.043C325.781,199.717,321.713,201.28,317.882,203.009z" style="fill: rgb(0, 255, 0);"/>
	<path fill="#C69C6D" d="M318.67,171.668c-3.745,0.532-7.307,1.66-10.566,3.066c-3.267,1.409-6.245,3.094-8.992,4.875&#10;&#9;&#9;c-5.502,3.588-10.074,7.485-14.505,11.501c-2.226,2.005-4.408,4.094-6.722,6.258c-1.146,1.114-2.341,2.195-3.567,3.376&#10;&#9;&#9;c-0.623,0.556-1.24,1.192-1.885,1.79c-0.641,0.615-1.299,1.229-1.957,1.949c1.769,0.691,3.567,1.118,5.372,1.362&#10;&#9;&#9;c1.808,0.258,3.624,0.331,5.429,0.279c3.603-0.127,7.161-0.773,10.509-1.795c6.734-2.034,12.619-5.368,17.743-8.707&#10;&#9;&#9;c5.161-3.378,9.538-6.719,14.022-9.783c2.261-1.53,4.59-3.025,7.248-4.442c1.328-0.722,2.735-1.4,4.24-2.12l2.334-1.053&#10;&#9;&#9;c0.805-0.349,1.632-0.692,2.503-1.132C334.265,172.107,326.151,170.55,318.67,171.668z" style="fill: rgb(0, 255, 0);"/>
	<path fill="#C69C6D" d="M270.916,183.695c1.776-0.402,3.655-0.788,5.363-1.378c1.695-0.583,3.466-1.204,5.047-1.937&#10;&#9;&#9;c6.521-2.886,12.05-6.607,17.096-10.119c5.06-3.554,9.608-6.963,14.487-10.321c0.615-0.409,1.224-0.855,1.845-1.297&#10;&#9;&#9;c0.611-0.472,1.271-0.794,1.909-1.234c1.297-0.798,2.581-1.831,3.988-2.57c0.689-0.437,1.396-0.851,2.108-1.317&#10;&#9;&#9;c0.711-0.484,1.439-0.947,2.193-1.362c1.503-0.857,3.055-1.798,4.687-2.973c-1.669-0.96-3.416-1.685-5.213-2.326&#10;&#9;&#9;c-0.904-0.373-1.804-0.543-2.723-0.745c-0.918-0.196-1.843-0.338-2.785-0.505c-1.886-0.339-3.755-0.328-5.66-0.308&#10;&#9;&#9;c-0.947,0.027-1.923,0.012-2.855,0.138c-0.93,0.133-1.871,0.261-2.807,0.427c-7.517,1.292-14.427,4.709-20.162,8.767&#10;&#9;&#9;c-5.779,4.091-10.509,8.744-14.774,13.517c-1.072,1.242-2.123,2.353-3.158,3.635c-1.04,1.25-2.08,2.431-3.13,3.745&#10;&#9;&#9;c-1.046,1.284-2.153,2.491-3.243,3.915c-1.133,1.302-2.32,2.631-3.512,4.251c1.876,0.389,3.79,0.563,5.699,0.572&#10;&#9;&#9;C267.171,184.191,269.077,184.023,270.916,183.695z" style="fill: rgb(0, 255, 0);"/>
	<path fill="#C69C6D" d="M244.344,160.288c0.877,0.007,1.762-0.038,2.639-0.089c3.476-0.297,6.762-1.09,9.795-2.11&#10;&#9;&#9;c6.088-2.051,11.304-4.855,16.105-7.691c4.808-2.864,9.154-5.803,13.59-8.771c2.23-1.475,4.488-3.006,6.959-4.54&#10;&#9;&#9;c0.615-0.405,1.248-0.793,1.895-1.169c0.647-0.387,1.311-0.81,1.994-1.194c0.684-0.369,1.388-0.828,2.115-1.223&#10;&#9;&#9;c0.728-0.413,1.479-0.822,2.265-1.33c-0.7-0.58-1.437-1.06-2.196-1.544c-0.76-0.453-1.545-0.831-2.35-1.196&#10;&#9;&#9;c-1.607-0.71-3.292-1.236-5.004-1.596c-3.428-0.717-6.977-0.827-10.398-0.432c-6.89,0.768-13.176,3.366-18.605,6.56&#10;&#9;&#9;c-5.453,3.225-10.096,7.12-14.177,11.269c-2.056,2.066-3.95,4.232-5.886,6.425c-1.955,2.238-3.852,4.383-6.574,6.808&#10;&#9;&#9;c1.579,0.878,3.383,1.402,5.149,1.616C242.577,160.245,243.428,160.232,244.344,160.288z" style="fill: rgb(0, 255, 0);"/>
	<path fill="#C69C6D" d="M247.73,127.465c4.939-0.823,9.053-2.578,12.601-4.48c3.563-1.935,6.519-4.042,9.371-6.37&#10;&#9;&#9;c1.443-1.151,2.87-2.406,4.536-3.702c1.674-1.335,3.57-2.639,6.099-4.229c-1.679-2.475-4.113-4.051-6.726-5.091&#10;&#9;&#9;c-2.623-1.007-5.437-1.419-8.116-1.362c-5.408,0.102-10.217,1.808-14.217,3.934c-4.025,2.163-7.298,4.825-10.096,7.758&#10;&#9;&#9;c-1.414,1.46-2.689,3.029-4.053,4.674c-1.379,1.679-2.791,3.395-5,5.426c2.095,2.166,4.969,3.12,7.7,3.566&#10;&#9;&#9;C242.584,127.997,245.275,127.872,247.73,127.465z" style="fill: rgb(0, 255, 0);"/>
	<path fill="#C69C6D" d="M237.098,100.195c1.948,0.011,3.746-0.335,5.261-0.801c1.528-0.471,2.819-1.075,3.886-1.714&#10;&#9;&#9;c2.171-1.314,3.429-2.695,4.542-4.565c1.14-1.934,2.31-4.232,5.446-7.913c-2.101-4.324-6.284-6.063-10.135-6.321&#10;&#9;&#9;c-3.898-0.223-7.262,1.002-9.608,2.376c-2.397,1.428-3.817,3.004-4.783,4.896c-1.013,1.938-1.647,4.326-5.055,7.814&#10;&#9;&#9;c0.45,1.096,1.083,2.072,1.836,2.9c0.758,0.768,1.644,1.39,2.606,1.947c0.927,0.433,1.967,0.83,2.989,1.053&#10;&#9;&#9;C235.058,100.077,236.141,100.198,237.098,100.195z" style="fill: rgb(0, 255, 0);"/>
	<path fill="#C69C6D" d="M309.882,283.279c3.567,0.045,7.109-0.103,10.568-0.439l2.607-0.227c0.857-0.083,1.707-0.213,2.562-0.317&#10;&#9;&#9;c1.716-0.214,3.403-0.453,5.08-0.7c6.72-1.005,13.196-2.311,19.499-3.494c12.617-2.378,24.507-4.284,36.447-3.394&#10;&#9;&#9;c5.977,0.4,11.978,1.524,18.056,3.324c1.568,0.348,3.022,0.979,4.574,1.462c0.769,0.256,1.553,0.497,2.323,0.773&#10;&#9;&#9;c0.747,0.316,1.516,0.606,2.286,0.907c3.136,1.123,6.136,2.585,9.43,3.836c-1.92-2.869-3.992-5.72-6.446-8.212&#10;&#9;&#9;c-0.599-0.642-1.197-1.296-1.818-1.924c-0.64-0.602-1.305-1.177-1.964-1.771c-1.337-1.158-2.66-2.374-4.131-3.388&#10;&#9;&#9;c-5.726-4.303-12.402-7.619-19.488-9.71c-7.087-2.106-14.519-2.927-21.741-2.881c-7.241,0.029-14.286,0.946-21.043,2.201&#10;&#9;&#9;c-13.547,2.527-25.928,6.492-38.135,8.99c-6.111,1.275-12.197,2.173-18.477,2.394c-1.569,0.055-3.135-0.005-4.75,0.031l-4.837-0.26&#10;&#9;&#9;c-1.601-0.213-3.256-0.368-4.935-0.563c-1.644-0.279-3.317-0.574-5.074-0.795c4.925,4.933,11.267,8.561,18.117,10.858&#10;&#9;&#9;C295.455,282.284,302.765,283.195,309.882,283.279z" style="fill: rgb(0, 255, 0);"/>
	<path fill="#C69C6D" d="M395.136,307.046c1.236,0.224,2.523,0.403,3.805,0.666c1.252,0.318,2.584,0.557,3.898,0.894&#10;&#9;&#9;c1.301,0.359,2.626,0.737,4.042,1.055c-2.988-4.832-7.333-8.844-12.424-11.886c-5.1-3.025-10.942-4.976-16.788-5.888&#10;&#9;&#9;c-5.859-0.952-11.708-0.994-17.312-0.601c-5.614,0.396-11.008,1.225-16.208,2.162c-10.415,1.892-20.014,4.197-29.581,5.328&#10;&#9;&#9;c-4.791,0.556-9.603,0.858-14.606,0.664c-1.247-0.057-2.535-0.06-3.793-0.219l-1.93-0.172c-0.652-0.052-1.308-0.11-1.951-0.218&#10;&#9;&#9;c-1.285-0.213-2.651-0.318-3.982-0.561c-1.337-0.234-2.694-0.484-4.135-0.662c0.869,1.117,1.82,2.162,2.792,3.223&#10;&#9;&#9;c0.991,1.026,2.08,1.932,3.176,2.872c2.225,1.812,4.663,3.414,7.252,4.767c5.18,2.712,10.935,4.472,16.722,5.34&#10;&#9;&#9;c5.796,0.898,11.607,0.957,17.208,0.582c5.609-0.379,11.024-1.196,16.239-2.149c10.451-1.913,20.06-4.319,29.497-5.382&#10;&#9;&#9;c4.731-0.524,9.447-0.706,14.357-0.255C392.628,306.752,393.888,306.85,395.136,307.046z" style="fill: rgb(0, 255, 0);"/>
	<path fill="#C69C6D" d="M293.792,331.108c3.907,2.387,8.198,4.001,12.478,5.185c8.613,2.298,17.188,2.791,25.353,2.904&#10;&#9;&#9;c8.195,0.087,16.031-0.277,23.7-0.236c7.721,0.042,15.115,0.517,23.619,3.021c-2.126-3.94-5.51-7.152-9.29-9.692&#10;&#9;&#9;c-3.804-2.537-8.044-4.327-12.313-5.654c-8.594-2.596-17.276-3.229-25.519-3.356c-8.276-0.111-16.203,0.387-23.926,0.584&#10;&#9;&#9;c-3.872,0.118-7.687,0.104-11.573-0.161c-3.903-0.254-7.825-0.87-12.151-1.991C286.375,325.616,289.914,328.719,293.792,331.108z" style="fill: rgb(0, 255, 0);"/>
	<path fill="#C69C6D" d="M235.785,54.425l2.957,1.066c1.976,0.678,3.908,1.496,5.848,2.262c7.731,3.16,15.251,6.747,22.561,10.714&#10;&#9;&#9;c14.633,7.905,28.556,17.023,41.951,26.85c26.769,19.704,51.559,42.055,74.789,65.873c23.153,23.893,44.827,49.303,63.944,76.525&#10;&#9;&#9;c9.546,13.612,18.429,27.702,26.065,42.471c0.011,0.022,0.022,0.044,0.033,0.066l-0.001,0c1.013,1.95,1.994,3.916,2.949,5.894&#10;&#9;&#9;c2.649,5.487,5.075,11.084,7.228,16.801c0.383,1.016,0.755,2.036,1.115,3.061c2.404,6.851,4.286,13.896,5.468,21.189&#10;&#9;&#9;c0.001-0.005,0-0.01,0.001-0.015c0.001,0.004,0.001,0.007,0.002,0.011c0.038-0.786,0.05-1.575,0.063-2.364&#10;&#9;&#9;c0.06-3.459-0.103-6.938-0.405-10.411c-0.305-2.71-0.689-5.418-1.155-8.114c-0.263-1.53-0.545-3.056-0.872-4.574&#10;&#9;&#9;c-1.071-5.213-2.465-10.354-4.085-15.424c-0.995-3.117-2.074-6.208-3.217-9.27c-0.69-1.826-1.401-3.641-2.134-5.445&#10;&#9;&#9;c-0.001,0.003-0.001,0.007-0.002,0.01c-5.72-14.115-12.785-27.647-20.588-40.678c-17.722-29.358-39.207-56.255-62.995-80.826&#10;&#9;&#9;c-23.857-24.5-50.183-46.744-79.163-65.132c-14.515-9.126-29.724-17.266-45.7-23.597c-7.99-3.143-16.158-5.865-24.509-7.819&#10;&#9;&#9;c-2.094-0.466-4.167-0.98-6.279-1.35l-3.147-0.601l-3.168-0.487c-4.225-0.607-8.479-0.97-12.714-1.11&#10;&#9;&#9;c4.115,1.058,8.194,2.078,12.171,3.456L235.785,54.425z" style="fill: rgb(0, 255, 0);"/>
</g>
</svg>